<svg width="80" height="80" viewBox="0 0 80 80" fill="none" xmlns="http://www.w3.org/2000/svg">
<g clip-path="url(#clip0_1797_6298)">
<path d="M79.062 12.0156C79.0631 9.6644 78.3157 7.37389 76.9281 5.47578C75.5406 3.57768 73.5848 2.17051 71.3442 1.45808C69.1035 0.745643 66.6942 0.764921 64.4652 1.51312C62.2362 2.26132 60.3033 3.6996 58.9463 5.61967L27.26 7.41998C26.0875 5.6289 24.5287 4.1232 22.698 3.01347C20.8674 1.90374 18.8114 1.21817 16.6811 1.0071C14.5508 0.796027 12.4002 1.06482 10.3874 1.79374C8.37459 2.52265 6.5506 3.69318 5.04941 5.21935C3.54822 6.74552 2.40795 8.58857 1.71235 10.6131C1.01675 12.6377 0.783479 14.7924 1.02968 16.9189C1.27587 19.0455 1.99528 21.0899 3.13507 22.9019C4.27485 24.714 5.80607 26.2478 7.61625 27.3906L6.43344 40.0647C4.5734 40.7644 3.01796 42.0948 2.03832 43.8239C1.05868 45.553 0.717001 47.5711 1.07284 49.5263C1.42869 51.4815 2.45948 53.2498 3.98551 54.5228C5.51153 55.7959 7.43597 56.4929 9.42328 56.4925C9.4325 56.4925 9.44157 56.4925 9.45078 56.4925L13.0077 65.3848C12.2719 66.371 11.7574 67.5042 11.4991 68.7072C11.2409 69.9102 11.245 71.1547 11.5112 72.356C11.7773 73.5572 12.2993 74.687 13.0416 75.6683C13.7838 76.6496 14.7289 77.4594 15.8123 78.0425C16.8958 78.6255 18.0922 78.9682 19.3201 79.0471C20.548 79.1261 21.7784 78.9394 22.9276 78.4998C24.0768 78.0602 25.1178 77.3781 25.9795 76.4999C26.8413 75.6217 27.5036 74.5681 27.9214 73.4108L42.7964 67.7437C44.0126 70.514 45.8751 72.9525 48.2278 74.8548C50.5805 76.757 53.3549 78.0677 56.3184 78.6769C59.282 79.2862 62.3484 79.1762 65.2607 78.3563C68.173 77.5364 70.8464 76.0304 73.0568 73.9645C75.2672 71.8986 76.9503 69.333 77.965 66.4827C78.9797 63.6324 79.2964 60.5804 78.8887 57.5825C78.4809 54.5846 77.3606 51.728 75.6215 49.2523C73.8825 46.7765 71.5753 44.7536 68.8934 43.3531L71.5984 22.4861C73.7757 21.7318 75.6641 20.3185 77.0015 18.4422C78.339 16.5659 79.0592 14.3198 79.062 12.0156ZM67.9839 2.81248C69.8041 2.81248 71.5835 3.35223 73.0969 4.36348C74.6103 5.37474 75.7899 6.81207 76.4865 8.49372C77.1831 10.1754 77.3653 12.0258 77.0102 13.811C76.6551 15.5963 75.7786 17.2361 74.4915 18.5232C73.2044 19.8103 71.5646 20.6868 69.7794 21.0419C67.9941 21.397 66.1437 21.2147 64.462 20.5182C62.7804 19.8216 61.343 18.642 60.3318 17.1286C59.3205 15.6151 58.7808 13.8358 58.7808 12.0156C58.7837 9.57568 59.7543 7.23654 61.4796 5.51125C63.2048 3.78597 65.544 2.81541 67.9839 2.81248ZM28.4316 37.0587C27.5853 37.3977 26.825 37.9208 26.2059 38.59L19.9445 28.8297C20.8058 28.532 21.6366 28.1526 22.4255 27.6965L28.4316 37.0587ZM23.9839 26.6531C25.1558 25.7537 26.1829 24.68 27.0295 23.4695L36.6963 26.4319C36.7976 27.181 37.0061 27.9117 37.3155 28.6015L31.1572 36.6415C30.9001 36.6209 30.6419 36.6172 30.3844 36.6304L23.9839 26.6531ZM24.8902 40.0109L15.9508 42.589C15.1216 41.5917 14.0758 40.7966 12.8931 40.2642L13.8931 29.5447C14.347 29.5883 14.8069 29.6114 15.272 29.6114C16.203 29.6115 17.1317 29.521 18.0452 29.3411L24.8902 40.0109ZM24.6166 42.0412C24.5097 42.96 24.6129 43.8911 24.9186 44.7642L17.8248 46.8111C17.6978 45.9141 17.4268 45.0435 17.0222 44.2329L24.6166 42.0412ZM17.8745 48.7472L25.8292 46.4531C25.8569 46.4894 25.8852 46.5248 25.9136 46.5604L20.8952 62.0015C20.1366 61.9087 19.3689 61.9186 18.613 62.0311L15.4077 54.017C16.827 52.6072 17.701 50.7401 17.8745 48.7472ZM27.4405 47.9262C28.2113 48.413 29.0817 48.7202 29.9873 48.8251L25.135 63.7558C24.409 63.1868 23.5957 62.7391 22.7267 62.4298L27.4405 47.9262ZM26.4489 42.745C26.4489 41.9049 26.698 41.0837 27.1647 40.3852C27.6315 39.6867 28.2948 39.1423 29.071 38.8208C29.8471 38.4993 30.7011 38.4152 31.5251 38.5791C32.349 38.743 33.1058 39.1475 33.6998 39.7415C34.2939 40.3356 34.6984 41.0924 34.8623 41.9163C35.0262 42.7403 34.9421 43.5943 34.6206 44.3704C34.2991 45.1466 33.7547 45.8099 33.0562 46.2766C32.3577 46.7434 31.5365 46.9925 30.6964 46.9925C29.5704 46.991 28.4909 46.543 27.6948 45.7468C26.8986 44.9505 26.4508 43.871 26.4495 42.745H26.4489ZM33.1416 37.1334L38.3623 30.3173C38.9299 31.0274 39.6141 31.6357 40.3858 32.1161L35.317 38.7344C34.7197 38.0462 33.9768 37.4993 33.1422 37.1334H33.1416ZM29.5283 13.7514L56.9091 12.1956C56.9134 12.4651 56.9272 12.7322 56.9503 12.997L48.7536 18.5981C47.1324 17.5932 45.2036 17.2059 43.3201 17.507C41.4367 17.8082 39.7248 18.7777 38.4978 20.2379L29.4425 17.4629C29.6309 16.2346 29.6598 14.9871 29.5283 13.7514ZM38.497 25.3608C38.497 24.1586 38.8535 22.9835 39.5214 21.9839C40.1893 20.9844 41.1385 20.2053 42.2492 19.7453C43.3598 19.2853 44.5819 19.1649 45.7609 19.3994C46.94 19.634 48.023 20.2128 48.873 21.0629C49.7231 21.9129 50.302 22.9959 50.5365 24.175C50.771 25.354 50.6507 26.5761 50.1906 27.6868C49.7306 28.7974 48.9515 29.7467 47.952 30.4145C46.9524 31.0824 45.7773 31.4389 44.5752 31.4389C42.9634 31.4372 41.4182 30.7961 40.2786 29.6563C39.1391 28.5165 38.4983 26.9711 38.497 25.3594V25.3608ZM48.7034 32.155L52.5658 42.7767C51.7326 43.1413 50.9268 43.5656 50.1547 44.0462L46.1916 33.1469C47.0796 32.9626 47.9293 32.6268 48.7034 32.1542V32.155ZM50.2503 30.9233C51.1445 30.0151 51.8064 28.9045 52.1796 27.6858C52.5528 26.4672 52.6264 25.1764 52.3941 23.9233L59.4647 19.0917C60.9182 20.841 62.8739 22.1017 65.0673 22.7031L62.648 41.3655C59.8508 40.9905 57.0052 41.2451 54.3191 42.1108L50.2503 30.9233ZM51.8042 22.0553C51.4259 21.2315 50.9099 20.4782 50.2784 19.8278L57.32 15.0153C57.57 15.9026 57.9304 16.755 58.3928 17.5525L51.8042 22.0553ZM57.8433 7.56029C57.4552 8.43774 57.1837 9.36229 57.0359 10.3103L29.2052 11.8919C28.9835 10.9795 28.6722 10.0913 28.2756 9.24029L57.8433 7.56029ZM29.0336 19.2986L37.4298 21.8717C37.0306 22.6859 36.7749 23.5629 36.6739 24.464L28.0286 21.8147C28.4428 21.0098 28.7793 20.1673 29.0336 19.2986ZM2.81 15.2747C2.80794 13.2821 3.2837 11.3181 4.19738 9.54731C5.11107 7.77656 6.43603 6.25072 8.06116 5.09775C9.68628 3.94477 11.5642 3.19829 13.5374 2.92091C15.5105 2.64353 17.5215 2.84334 19.4015 3.50357C21.2815 4.1638 22.9758 5.26521 24.3423 6.71543C25.7087 8.16564 26.7075 9.92238 27.2549 11.8383C27.8023 13.7542 27.8823 15.7735 27.4882 17.7267C27.0941 19.6799 26.2373 21.5101 24.9898 23.0639C24.0816 21.2661 22.6923 19.7554 20.9767 18.7C19.2611 17.6447 17.2864 17.0859 15.2721 17.0859C13.2579 17.0859 11.2831 17.6447 9.56749 18.7C7.85188 19.7554 6.46266 21.2661 5.55438 23.0639C3.77644 20.8573 2.8079 18.1084 2.81 15.2747ZM6.9411 24.5336C7.62228 22.8845 8.77757 21.4746 10.2606 20.4826C11.7437 19.4906 13.4878 18.961 15.2721 18.961C17.0564 18.961 18.8005 19.4906 20.2836 20.4826C21.7666 21.4746 22.9219 22.8845 23.6031 24.5336C21.3182 26.5955 18.3498 27.7369 15.2721 27.7369C12.1944 27.7369 9.226 26.5955 6.9411 24.5336ZM12.0381 29.244L11.0641 39.6806C10.1738 39.5048 9.26106 39.4738 8.36094 39.5887L9.40922 28.3573C10.2546 28.7378 11.135 29.0348 12.0381 29.244ZM9.42328 54.6175C8.1157 54.6175 6.83749 54.2297 5.75027 53.5033C4.66306 52.7768 3.81568 51.7443 3.31529 50.5362C2.8149 49.3282 2.68397 47.9989 2.93907 46.7164C3.19416 45.434 3.82382 44.256 4.74842 43.3314C5.67302 42.4068 6.85104 41.7771 8.13349 41.522C9.41595 41.2669 10.7453 41.3978 11.9533 41.8982C13.1613 42.3986 14.1939 43.246 14.9203 44.3332C15.6468 45.4204 16.0345 46.6986 16.0345 48.0062C16.0325 49.759 15.3354 51.4395 14.096 52.6789C12.8565 53.9183 11.1761 54.6155 9.42328 54.6175ZM11.3786 56.2625C12.2601 56.0539 13.1023 55.7048 13.8728 55.2284L16.7869 62.5139C15.9327 62.8444 15.137 63.3097 14.4302 63.892L11.3786 56.2625ZM19.8695 77.1875C18.5469 77.1875 17.2539 76.7953 16.1542 76.0604C15.0544 75.3256 14.1973 74.2812 13.6911 73.0592C13.1849 71.8372 13.0525 70.4926 13.3105 69.1953C13.5686 67.8981 14.2055 66.7065 15.1408 65.7712C16.076 64.8359 17.2676 64.199 18.5649 63.941C19.8621 63.6829 21.2067 63.8154 22.4287 64.3215C23.6507 64.8277 24.6952 65.6849 25.43 66.7846C26.1648 67.8844 26.557 69.1773 26.557 70.5C26.555 72.273 25.8498 73.9728 24.5961 75.2266C23.3424 76.4803 21.6426 77.1855 19.8695 77.1875ZM27.52 66.6615C27.2679 66.1614 26.9674 65.6872 26.6228 65.2456L31.8942 49.0259L41.3745 57.5392C41.2563 58.3977 41.1968 59.2633 41.1966 60.13C41.1966 60.5683 41.2122 61.0028 41.2423 61.4337L27.52 66.6615ZM28.3992 71.2225C28.4194 70.984 28.432 70.7436 28.432 70.5C28.4321 69.7982 28.3457 69.0992 28.1748 68.4186L41.4727 63.3526C41.6267 64.2475 41.8455 65.1301 42.1273 65.9933L28.3992 71.2225ZM41.7964 55.3973L33.6659 48.0969C34.4665 47.6506 35.1574 47.0314 35.6884 46.2844L42.7495 52.625C42.36 53.5228 42.0414 54.4498 41.7964 55.3973ZM36.5514 44.5379C36.9639 43.1929 36.8997 41.7467 36.3697 40.4434L42.1284 32.9251C42.8161 33.1479 43.5311 33.2753 44.2534 33.3037L48.562 45.153C46.5468 46.7129 44.8645 48.6608 43.6147 50.8817L36.5514 44.5379ZM60.1295 77.1875C55.8383 77.1906 51.7047 75.57 48.5591 72.6511C49.4709 70.325 51.0626 68.3278 53.1266 66.9199C55.1906 65.5121 57.631 64.7591 60.1294 64.7591C62.6278 64.7591 65.0682 65.5121 67.1322 66.9199C69.1962 68.3278 70.7879 70.325 71.6997 72.6511C68.5541 75.5699 64.4207 77.1905 60.1295 77.1875ZM77.187 60.13C77.1906 64.1828 75.7445 68.1033 73.11 71.1831C71.9643 68.705 70.1332 66.6066 67.833 65.1359C65.5328 63.6653 62.8597 62.8838 60.1295 62.8838C57.3994 62.8838 54.7263 63.6653 52.4261 65.1359C50.1259 66.6066 48.2948 68.705 47.1491 71.1831C45.3681 69.0917 44.1187 66.601 43.5072 63.9229C42.8956 61.2449 42.9401 58.4587 43.6367 55.8015C44.3334 53.1443 45.6616 50.6948 47.5084 48.6612C49.3552 46.6277 51.6658 45.0703 54.2438 44.1217C56.8218 43.1731 59.5908 42.8612 62.3152 43.2127C65.0396 43.5642 67.6388 44.5686 69.8916 46.1405C72.1444 47.7123 73.9842 49.8051 75.2544 52.2408C76.5246 54.6765 77.1876 57.383 77.187 60.13ZM67.1102 42.5312C66.2596 42.1928 65.3854 41.917 64.4945 41.7061L66.9139 23.0422C67.8241 23.1308 68.7417 23.1064 69.6459 22.9697L67.1102 42.5312Z" fill="#16658E"/>
<path d="M53.3975 54.6407C53.3975 55.9723 53.7923 57.2739 54.5321 58.3811C55.2719 59.4882 56.3233 60.3512 57.5535 60.8607C58.7837 61.3703 60.1374 61.5036 61.4434 61.2438C62.7494 60.9841 63.949 60.3429 64.8906 59.4013C65.8321 58.4597 66.4733 57.2601 66.7331 55.9541C66.9929 54.6482 66.8595 53.2945 66.35 52.0643C65.8404 50.8341 64.9775 49.7826 63.8703 49.0428C62.7632 48.3031 61.4615 47.9082 60.13 47.9082C58.345 47.9102 56.6338 48.6202 55.3716 49.8823C54.1095 51.1445 53.3995 52.8558 53.3975 54.6407ZM64.9875 54.6407C64.9875 55.6014 64.7026 56.5406 64.1688 57.3394C63.6351 58.1382 62.8764 58.7608 61.9888 59.1284C61.1013 59.4961 60.1246 59.5923 59.1823 59.4049C58.24 59.2174 57.3745 58.7548 56.6952 58.0755C56.0159 57.3961 55.5532 56.5306 55.3658 55.5884C55.1784 54.6461 55.2746 53.6694 55.6422 52.7818C56.0099 51.8942 56.6325 51.1356 57.4313 50.6018C58.2301 50.0681 59.1692 49.7832 60.13 49.7832C61.4178 49.7847 62.6525 50.2969 63.5631 51.2075C64.4738 52.1182 64.986 53.3529 64.9875 54.6407Z" fill="#2198D5"/>
<path d="M15.2723 16.4394C16.3112 16.4394 17.3268 16.1313 18.1906 15.554C19.0544 14.9768 19.7276 14.1564 20.1251 13.1966C20.5226 12.2367 20.6266 11.1805 20.4238 10.1616C20.2211 9.14269 19.7207 8.20677 18.986 7.47222C18.2514 6.73767 17.3154 6.23748 16.2964 6.03491C15.2774 5.83233 14.2213 5.93647 13.2615 6.33416C12.3017 6.73184 11.4814 7.40521 10.9044 8.26911C10.3273 9.133 10.0194 10.1486 10.0195 11.1875C10.0214 12.58 10.5754 13.9149 11.5601 14.8995C12.5448 15.884 13.8799 16.4378 15.2723 16.4394ZM15.2723 7.80908C15.9403 7.80912 16.5933 8.00722 17.1487 8.37834C17.7042 8.74947 18.1371 9.27695 18.3927 9.8941C18.6484 10.5112 18.7153 11.1903 18.585 11.8455C18.4547 12.5007 18.1331 13.1025 17.6608 13.5749C17.1885 14.0473 16.5867 14.369 15.9316 14.4994C15.2764 14.6298 14.5973 14.563 13.9801 14.3075C13.3629 14.052 12.8354 13.6192 12.4641 13.0638C12.0929 12.5085 11.8947 11.8555 11.8945 11.1875C11.8953 10.2919 12.2514 9.43309 12.8847 8.79969C13.518 8.1663 14.3767 7.81004 15.2723 7.80908Z" fill="#2198D5"/>
</g>
<defs>
<clipPath id="clip0_1797_6298">
<rect width="80" height="80" fill="white"/>
</clipPath>
</defs>
</svg>
