<svg width="80" height="80" viewBox="0 0 80 80" fill="none" xmlns="http://www.w3.org/2000/svg">
<path fill-rule="evenodd" clip-rule="evenodd" d="M17.5 69.375H0.9375C0.46875 69.375 0 68.9062 0 68.4375V35.7812C0 35.1562 0.46875 34.8438 0.9375 34.8438H17.5C18.125 34.8438 18.4375 35.1562 18.4375 35.7812V68.4375C18.4375 68.9062 18.125 69.375 17.5 69.375ZM1.875 67.5H16.5625V36.7188H1.875V67.5Z" fill="#16658E"/>
<path fill-rule="evenodd" clip-rule="evenodd" d="M40.1562 70C37.1875 70 34.5312 69.0625 31.0938 67.8125C29.5312 67.3437 27.8125 66.7187 25.7812 66.0937C25 65.7812 21.25 65.7812 19.375 65.7812C18.5938 65.7812 17.9688 65.7812 17.5 65.7812C17.0312 65.7812 16.5625 65.3125 16.5625 64.8437C16.5625 64.375 17.0312 63.9062 17.5 63.9062H19.375C22.5 63.9062 25.3125 63.9062 26.4062 64.2187C28.4375 64.8437 30.1562 65.4687 31.7188 66.0937C38.125 68.2812 41.5625 69.5312 48.4375 65.4687L76.7188 48.5937C77.3438 48.2812 77.8125 47.6562 77.9688 46.875C78.125 46.0937 78.125 45.4687 77.6562 44.6875C76.875 43.9062 75.3125 42.8125 73.75 43.75L44.8438 60.9375C42.3438 62.3437 39.2188 62.0312 36.7188 59.8437C34.375 57.9687 32.9688 55 33.75 53.125C33.9062 52.3437 34.6875 51.0937 37.0312 51.0937H49.6875C51.4062 51.0937 52.6562 49.8437 52.6562 48.2812C52.6562 46.5625 51.4062 45.3125 49.6875 45.3125H35.1562C34.6875 45.3125 34.375 45 34.2188 44.5312C34.0625 43.2812 33.2812 42.3437 32.1875 41.5625C27.6562 38.9062 17.9688 41.7187 17.8125 41.7187C17.3438 41.875 16.7188 41.7187 16.7188 41.0937C16.5625 40.625 16.7188 40.1562 17.3438 40C17.6562 39.8437 27.9688 36.875 33.125 40C34.5312 40.7812 35.4688 42.0312 35.9375 43.4375H49.6875C52.3438 43.4375 54.5312 45.625 54.5312 48.2812C54.5312 50.9375 52.3438 52.9687 49.6875 52.9687H37.0312C36.0938 52.9687 35.625 53.2812 35.4688 53.75C35.1562 54.6875 35.9375 56.875 37.8125 58.4375C38.75 59.2187 41.25 60.7812 43.9062 59.2187L72.8125 42.1875C74.6875 40.9375 77.0312 41.4062 79.2188 43.5937V43.75C80 44.8437 80.1562 46.0937 79.8438 47.3437C79.5312 48.5937 78.75 49.6875 77.6562 50.3125L49.375 67.0312C45.7812 69.2187 42.9688 70 40.1562 70Z" fill="#16658E"/>
<path fill-rule="evenodd" clip-rule="evenodd" d="M48.2812 37.0312C40.7812 37.0312 34.8438 30.9375 34.8438 23.4375C34.8438 16.0938 40.7812 10 48.2812 10C55.7812 10 61.7188 16.0938 61.7188 23.4375C61.7188 30.9375 55.7812 37.0312 48.2812 37.0312ZM48.2812 11.875C41.875 11.875 36.7188 17.0312 36.7188 23.4375C36.7188 29.8438 41.875 35.1562 48.2812 35.1562C54.6875 35.1562 59.8438 29.8438 59.8438 23.4375C59.8438 17.0312 54.6875 11.875 48.2812 11.875Z" fill="#2198D5"/>
<path fill-rule="evenodd" clip-rule="evenodd" d="M48.2812 31.5625C45.7812 31.5625 43.75 29.5312 43.75 27.0312C43.75 26.5625 44.2188 26.0938 44.6875 26.0938C45.1562 26.0938 45.625 26.5625 45.625 27.0312C45.625 28.5938 46.875 29.6875 48.2812 29.6875C49.6875 29.6875 50.9375 28.5938 50.9375 27.0312C50.9375 25.625 49.6875 24.375 48.2812 24.375C45.7812 24.375 43.75 22.5 43.75 20C43.75 17.5 45.7812 15.4688 48.2812 15.4688C50.7812 15.4688 52.8125 17.5 52.8125 20C52.8125 20.4688 52.3438 20.9375 51.875 20.9375C51.4062 20.9375 50.9375 20.4688 50.9375 20C50.9375 18.4375 49.6875 17.3438 48.2812 17.3438C46.875 17.3438 45.625 18.4375 45.625 20C45.625 21.4062 46.875 22.5 48.2812 22.5C50.7812 22.5 52.8125 24.5312 52.8125 27.0312C52.8125 29.5312 50.7812 31.5625 48.2812 31.5625Z" fill="#2198D5"/>
<path fill-rule="evenodd" clip-rule="evenodd" d="M48.2812 32.6562C47.8125 32.6562 47.3438 32.1875 47.3438 31.7188V15.3125C47.3438 14.8438 47.8125 14.375 48.2812 14.375C48.75 14.375 49.2188 14.8438 49.2188 15.3125V31.7188C49.2188 32.1875 48.75 32.6562 48.2812 32.6562Z" fill="#2198D5"/>
<path fill-rule="evenodd" clip-rule="evenodd" d="M23.75 34.8438C23.2812 34.8438 22.8125 34.375 22.8125 33.9062V13.125C22.8125 12.6562 23.2812 12.1875 23.75 12.1875C24.375 12.1875 24.6875 12.6562 24.6875 13.125V33.9062C24.6875 34.375 24.375 34.8438 23.75 34.8438Z" fill="#2198D5"/>
<path fill-rule="evenodd" clip-rule="evenodd" d="M27.6562 34.8438C27.1875 34.8438 26.7188 34.375 26.7188 33.9062V19.375C26.7188 18.75 27.1875 18.4375 27.6562 18.4375C28.125 18.4375 28.5938 18.75 28.5938 19.375V33.9062C28.5938 34.375 28.125 34.8438 27.6562 34.8438Z" fill="#2198D5"/>
<path fill-rule="evenodd" clip-rule="evenodd" d="M72.8125 34.8438C72.1875 34.8438 71.875 34.375 71.875 33.9062V13.125C71.875 12.6562 72.1875 12.1875 72.8125 12.1875C73.2812 12.1875 73.75 12.6562 73.75 13.125V33.9062C73.75 34.375 73.2812 34.8438 72.8125 34.8438Z" fill="#2198D5"/>
<path fill-rule="evenodd" clip-rule="evenodd" d="M68.9062 34.8438C68.4375 34.8438 67.9688 34.375 67.9688 33.9062V19.375C67.9688 18.75 68.4375 18.4375 68.9062 18.4375C69.375 18.4375 69.8438 18.75 69.8438 19.375V33.9062C69.8438 34.375 69.375 34.8438 68.9062 34.8438Z" fill="#2198D5"/>
</svg>
