<svg width="80" height="80" viewBox="0 0 80 80" fill="none" xmlns="http://www.w3.org/2000/svg">
<path d="M2.50039 68.1251H10.3129C10.8254 68.1251 11.2754 67.8251 11.4629 67.3501L13.1379 63.2876L34.8379 76.9001C35.5129 77.3001 36.2629 77.5001 37.0004 77.5001C38.3754 77.5001 39.7129 76.8376 40.5254 75.6126C40.8004 75.2001 40.9879 74.7376 41.1004 74.2751C41.7754 74.6751 42.5129 74.8751 43.2504 74.8751C44.6129 74.8751 45.9504 74.2126 46.7754 73.0001C47.2004 72.3751 47.4254 71.6626 47.4629 70.9251L47.8379 71.1501C48.5129 71.5626 49.2754 71.7626 50.0129 71.7626C51.3754 71.7626 52.7129 71.1001 53.5379 69.8876C53.9004 69.3501 54.1254 68.7626 54.2004 68.1251C54.8504 68.4876 55.5629 68.6751 56.2629 68.6751C57.6379 68.6751 58.9754 68.0126 59.7879 66.7876C60.3129 66.0001 60.5254 65.0876 60.4754 64.2001C62.2129 63.5251 64.1129 62.7376 66.2379 61.8251L68.5254 67.3751C68.7129 67.8376 69.1754 68.1501 69.6754 68.1501H77.4879C78.1754 68.1501 78.7379 67.5876 78.7379 66.9001V38.7501C78.7379 38.1376 78.3004 37.6126 77.6879 37.5126C71.3504 36.4626 64.7879 36.9751 58.7004 39.0001L58.3379 39.1251C58.0129 39.2376 57.7379 39.4751 57.6004 39.7876C57.4629 40.1001 57.4504 40.4626 57.5754 40.7876L59.3879 45.2001L46.6504 39.6251C43.3879 38.2001 39.7254 38.0376 36.3629 39.1626C34.0254 39.9376 31.9379 41.3126 30.2879 43.1251C27.4879 42.7126 24.3504 42.4751 21.7379 42.3376L22.3754 40.8001C22.5129 40.4751 22.5004 40.1251 22.3504 39.8001C22.2004 39.4751 21.9379 39.2501 21.6129 39.1376L21.2504 39.0126C15.1629 36.9876 8.58789 36.4626 2.26289 37.5251C1.66289 37.6251 1.21289 38.1501 1.21289 38.7626V66.8876C1.21289 67.5751 1.77539 68.1376 2.46289 68.1376L2.50039 68.1251ZM76.2504 39.8251V65.6251H70.5254L60.4254 41.0876C65.5379 39.5376 70.9629 39.1001 76.2504 39.8251ZM37.1754 41.5251C39.9504 40.5876 42.9754 40.7251 45.6629 41.9126L60.7754 48.5251L65.2879 59.4876C63.2004 60.4001 61.3254 61.1751 59.6129 61.8251C59.4004 61.5501 59.1504 61.2751 58.8629 61.0501L44.8629 50.2876C42.0004 48.0626 38.0504 47.6876 34.8254 49.3126L31.9504 50.7501C31.3504 51.0626 30.5254 50.9376 30.0129 50.4251C29.4629 49.8751 29.3629 49.0251 29.7629 48.3501L30.7629 46.6626C32.2129 44.2376 34.5004 42.4126 37.1754 41.5126V41.5251ZM28.6004 45.4001L27.6129 47.0626C26.6129 48.7126 26.8629 50.8251 28.2379 52.1876C29.5004 53.4501 31.5754 53.7501 33.0629 52.9751L35.9254 51.5501C38.3129 50.3501 41.2129 50.6376 43.3254 52.2626L57.3379 63.0251C58.0629 63.5751 58.2254 64.6001 57.7254 65.3626C57.2129 66.1376 56.1879 66.3626 55.3879 65.8876L42.2004 57.9751L40.9129 60.1126L51.2879 66.3376C51.5879 66.6376 51.7504 67.0376 51.7504 67.4876C51.7504 67.8376 51.6504 68.1626 51.4629 68.4376C50.9379 69.2126 49.9129 69.4376 49.1254 68.9626L35.9379 61.0501L34.6504 63.2001L42.8629 68.1251L44.3004 69.2376C44.7254 69.5626 44.9754 70.0626 44.9754 70.6126C44.9754 70.9626 44.8754 71.2876 44.6879 71.5626C44.1629 72.3376 43.1379 72.5626 42.3504 72.0876L29.1629 64.1751L27.8754 66.3251L38.6629 72.7876C38.7004 72.9251 38.7254 73.0751 38.7254 73.2376C38.7254 73.5876 38.6254 73.9126 38.4379 74.2001C37.9254 74.9751 36.9004 75.2001 36.1254 74.7501L14.0879 60.9251L20.7379 44.7751C23.0379 44.8751 25.9129 45.0626 28.5879 45.3876L28.6004 45.4001ZM3.75039 39.8251C9.03789 39.1001 14.4754 39.5376 19.5754 41.0876L9.47539 65.6251H3.75039V39.8251Z" fill="#16658E"/>
<path d="M29.6125 20.05C29.4625 20.5 29.5875 21 29.925 21.3375L34.05 25.3625L33.075 31.05C33 31.525 33.1875 31.9875 33.575 32.275C33.9625 32.55 34.475 32.5875 34.8875 32.375L39.9875 29.6875L45.0875 32.375C45.275 32.475 45.475 32.5125 45.675 32.5125C45.9375 32.5125 46.1875 32.4375 46.4125 32.275C46.8 32 46.9875 31.525 46.9125 31.05L45.9375 25.3625L50.0625 21.3375C50.4 21 50.525 20.5125 50.375 20.05C50.225 19.6 49.8375 19.2625 49.3625 19.2L43.65 18.375L41.1 13.2C40.675 12.35 39.275 12.35 38.8625 13.2L36.3125 18.375L30.6 19.2C30.125 19.2625 29.7375 19.6 29.5875 20.05H29.6125ZM37.3375 20.75C37.75 20.6875 38.1 20.4375 38.275 20.0625L40 16.575L41.725 20.0625C41.9125 20.4375 42.2625 20.6875 42.6625 20.75L46.5125 21.3125L43.725 24.025C43.425 24.3125 43.3 24.725 43.3625 25.1375L44.025 28.975L40.575 27.1625C40.3875 27.0625 40.1875 27.025 39.9875 27.025C39.7875 27.025 39.5875 27.075 39.4 27.1625L35.95 28.975L36.6125 25.1375C36.6875 24.7375 36.55 24.3125 36.25 24.025L33.4625 21.3125L37.3125 20.75H37.3375Z" fill="#2198D5"/>
<path d="M41.25 3.75C41.25 3.05964 40.6904 2.5 40 2.5C39.3096 2.5 38.75 3.05964 38.75 3.75V7.5C38.75 8.19036 39.3096 8.75 40 8.75C40.6904 8.75 41.25 8.19036 41.25 7.5V3.75Z" fill="#2198D5"/>
<path d="M28.2377 13.55C28.6627 14.0875 29.4502 14.175 30.0002 13.75C30.5377 13.325 30.6252 12.5375 30.2002 11.9875L27.7627 8.93747C27.3377 8.39997 26.5502 8.31247 26.0002 8.73747C25.4502 9.16247 25.3752 9.94997 25.8002 10.5L28.2377 13.55Z" fill="#2198D5"/>
<path d="M51.7627 13.5501L54.2002 10.5001C54.6252 9.96261 54.5502 9.17511 54.0002 8.73761C53.4502 8.30011 52.6752 8.40011 52.2377 8.93761L49.8002 11.9876C49.3752 12.5251 49.4502 13.3126 50.0002 13.7501C50.5377 14.1751 51.3252 14.0876 51.7627 13.5501Z" fill="#2198D5"/>
</svg>
