<svg width="80" height="80" viewBox="0 0 80 80" fill="none" xmlns="http://www.w3.org/2000/svg">
<g clip-path="url(#clip0_1904_5968)">
<path d="M50.3865 20.9967C49.9498 20.9233 49.6264 21.1433 49.3598 21.42C49.0964 21.6867 48.9565 22.04 48.9631 22.4067C48.9698 23.0333 49.4098 23.59 50.0231 23.7633L54.7364 23.92H54.7798C55.1898 23.92 55.5831 23.76 55.8631 23.4767C56.1365 23.2 56.2798 22.8333 56.2664 22.4367C56.2264 21.64 55.5431 21.02 54.7131 21.02L50.3865 20.9967Z" fill="#16658E"/>
<path d="M49.0861 17.2201C49.2127 17.2534 49.3361 17.2701 49.4627 17.2701C49.6694 17.2701 49.8827 17.2234 50.0794 17.1334L54.3761 15.1234C54.7561 14.9434 55.0461 14.6234 55.1694 14.2367C55.2827 13.8834 55.2461 13.5101 55.0727 13.1967C54.7127 12.5334 53.8661 12.2901 53.1261 12.6401L48.9161 14.6801C48.2261 15.0134 47.9161 15.8267 48.2327 16.5034C48.3994 16.8534 48.7127 17.1167 49.0861 17.2201Z" fill="#16658E"/>
<path d="M48.9159 30.2333L53.1259 32.27C53.3526 32.38 53.5926 32.43 53.8259 32.43C54.3393 32.43 54.8226 32.1733 55.0659 31.7233C55.2493 31.4033 55.2826 31.03 55.1693 30.6733C55.0459 30.29 54.7559 29.97 54.3759 29.79L50.0826 27.78L50.0726 27.7767C49.7593 27.6367 49.4159 27.6067 49.0859 27.6967C48.7093 27.8 48.3993 28.06 48.2293 28.4167C47.9193 29.0833 48.2259 29.9 48.9159 30.2333Z" fill="#16658E"/>
<path d="M23.7029 44.2233L20.0063 33.16H22.7463L39.9496 44.5733C40.1696 44.72 40.4296 44.7933 40.6863 44.7933C40.8996 44.7933 41.1196 44.74 41.3163 44.6367C41.7496 44.4033 42.0196 43.9533 42.0196 43.46V30.0433C45.4263 29.4133 48.0163 26.4367 48.0163 22.85C48.0163 19.2633 45.4263 16.2867 42.0196 15.6567V1.45C42.0196 0.960003 41.7496 0.50667 41.3163 0.273337C40.8796 0.0400033 40.3563 0.06667 39.9496 0.33667L22.7429 11.75H8.34961C7.61294 11.75 7.01628 12.3467 7.01628 13.0833V15.99H1.43294C0.696276 15.99 0.0996094 16.5867 0.0996094 17.3233V27.59C0.0996094 28.3267 0.699609 28.9233 1.43294 28.9233H7.01628V31.83C7.01628 32.5667 7.61628 33.1633 8.34961 33.1633H9.00628L13.8063 47.53C14.4363 49.4067 16.1163 50.79 18.0829 51.0467C18.3129 51.0767 18.5429 51.0933 18.7696 51.0933C19.3229 51.0933 19.8729 51.0033 20.4063 50.8233C23.1363 49.9067 24.6096 46.95 23.7029 44.2233ZM21.1996 47.0967C21.0396 47.42 20.8196 47.7033 20.5563 47.9333C20.2929 48.1667 19.9796 48.35 19.6263 48.47C18.9296 48.7 18.1863 48.65 17.5363 48.3233C16.8829 47.9967 16.3929 47.4333 16.1663 46.7433L14.4529 41.63L19.6896 40.0467L21.3463 45.01C21.4663 45.3667 21.5063 45.73 21.4796 46.0833C21.4529 46.43 21.3596 46.7733 21.1996 47.0967ZM11.6229 33.16H17.3896L18.9029 37.69L13.6663 39.2767L11.6229 33.16ZM45.3429 22.85C45.3429 24.9533 43.9329 26.7167 42.0163 27.2933V18.4067C43.9329 18.9867 45.3429 20.7467 45.3429 22.85ZM39.3463 40.98L24.4796 31.1133V13.8L39.3463 3.93667V40.98ZM9.68628 14.4167H21.8129V30.4967H9.68628V27.59V17.3233V14.4167ZM2.76961 26.2567V18.6567H7.01628V26.2567H2.76961Z" fill="#16658E"/>
<path d="M12.4232 21.0768H19.1165C19.8532 21.0768 20.4498 20.4802 20.4498 19.7435C20.4498 19.0068 19.8498 18.4102 19.1165 18.4102H12.4232C11.6865 18.4102 11.0898 19.0068 11.0898 19.7435C11.0898 20.4802 11.6865 21.0768 12.4232 21.0768Z" fill="#16658E"/>
<path d="M12.4232 26.6432H19.1165C19.8532 26.6432 20.4498 26.0466 20.4498 25.3099C20.4498 24.5732 19.8498 23.9766 19.1165 23.9766H12.4232C11.6865 23.9766 11.0898 24.5732 11.0898 25.3099C11.0898 26.0466 11.6865 26.6432 12.4232 26.6432Z" fill="#16658E"/>
<path d="M63.9029 38.8299H69.0996L55.1063 52.5833L48.2696 45.5666C47.4796 44.7766 46.3929 44.3799 45.3096 44.4166C44.3063 44.4733 43.4196 44.9199 42.9163 45.5633L23.5229 64.7566C22.9996 65.2733 22.9963 66.1199 23.5129 66.6399C23.7729 66.9033 24.1163 67.0366 24.4596 67.0366C24.7996 67.0366 25.1363 66.9066 25.3963 66.6499L44.8963 47.3433C45.0563 47.1399 45.2896 47.0899 45.4563 47.0799C45.8029 47.0699 46.1329 47.2033 46.3729 47.4399L54.1296 55.4033C54.3796 55.6599 54.8663 55.8899 55.0829 55.8066C55.4296 55.8066 55.7696 55.6699 56.0163 55.4233L71.0596 40.6366L71.1129 44.9033C71.1229 45.6333 71.7196 46.2199 72.4463 46.2199H72.4629C73.2029 46.2099 73.7896 45.6066 73.7829 44.8699L73.6863 37.4833C73.6863 37.3999 73.6529 37.3266 73.6363 37.2433C73.6196 37.1599 73.6163 37.0733 73.5829 36.9933C73.5329 36.8699 73.4529 36.7633 73.3663 36.6633C73.3396 36.6333 73.3329 36.5966 73.3029 36.5666C73.2996 36.5633 73.2996 36.5633 73.2963 36.5633C73.1729 36.4399 73.0296 36.3399 72.8663 36.2699C72.7063 36.2033 72.5329 36.1699 72.3596 36.1699C72.3563 36.1699 72.3529 36.1699 72.3529 36.1699H63.8996C63.1629 36.1699 62.5663 36.7666 62.5663 37.5033C62.5663 38.2399 63.1696 38.8299 63.9029 38.8299Z" fill="#2198D5"/>
<path d="M30.5863 68.2334H24.8663C23.1196 68.2334 21.6963 69.6567 21.6963 71.4034V76.5067C21.6963 78.4301 23.0596 79.8834 24.8663 79.8834H30.5863C32.4496 79.8834 33.963 78.3701 33.963 76.5067V71.4034C33.963 69.6867 32.4163 68.2334 30.5863 68.2334ZM31.293 76.5067C31.293 76.9901 30.873 77.2167 30.5863 77.2167H24.8663C24.4963 77.2167 24.3663 76.8501 24.3663 76.5067V71.4034C24.3663 71.1201 24.583 70.9001 24.8663 70.9001H30.5863C30.9363 70.9001 31.293 71.1934 31.293 71.4034V76.5067Z" fill="#16658E"/>
<path d="M46.1027 57.4136H40.1827C38.376 57.4136 37.0127 58.8636 37.0127 60.7869V76.5069C37.0127 78.4302 38.376 79.8836 40.1827 79.8836H46.1027C47.9127 79.8836 49.276 78.4302 49.276 76.5069V60.7869C49.276 58.8636 47.9127 57.4136 46.1027 57.4136ZM46.606 76.5069C46.606 76.8502 46.476 77.2169 46.1027 77.2169H40.1827C39.8127 77.2169 39.6827 76.8502 39.6827 76.5069V60.7869C39.6827 60.4436 39.8127 60.0802 40.1827 60.0802H46.1027C46.476 60.0802 46.606 60.4469 46.606 60.7869V76.5069Z" fill="#16658E"/>
<path d="M61.4132 60.8833H55.4932C53.7466 60.8833 52.3232 62.3066 52.3232 64.0533V76.5066C52.3232 78.43 53.6866 79.8833 55.4932 79.8833H61.4132C63.2232 79.8833 64.5866 78.43 64.5866 76.5066V64.0533C64.5866 62.3066 63.1632 60.8833 61.4132 60.8833ZM61.9199 76.5066C61.9199 76.85 61.7899 77.2166 61.4166 77.2166H55.4966C55.1266 77.2166 54.9966 76.85 54.9966 76.5066V64.0533C54.9966 63.77 55.2132 63.55 55.4966 63.55H61.4166C61.7066 63.55 61.9199 63.7666 61.9199 64.0533V76.5066Z" fill="#16658E"/>
<path d="M76.7261 52.3101H71.0095C69.1461 52.3101 67.6328 53.8234 67.6328 55.6834V76.5101C67.6328 78.4667 69.0528 79.8867 71.0095 79.8867H76.7261C78.5361 79.8867 79.8995 78.4334 79.8995 76.5101V55.6834C79.8995 53.8534 78.4461 52.3101 76.7261 52.3101ZM77.2295 76.5067C77.2295 76.8501 77.0995 77.2167 76.7261 77.2167H71.0095C70.5228 77.2167 70.3028 76.9967 70.3028 76.5067V55.6801C70.3028 55.3967 70.5261 54.9734 71.0095 54.9734H76.7261C76.9361 54.9734 77.2295 55.3301 77.2295 55.6801V76.5067Z" fill="#16658E"/>
</g>
<defs>
<clipPath id="clip0_1904_5968">
<rect width="80" height="80" fill="white"/>
</clipPath>
</defs>
</svg>
