<svg width="80" height="80" viewBox="0 0 80 80" fill="none" xmlns="http://www.w3.org/2000/svg">
<path d="M24.8234 29.1765C22.8234 29.1765 21.2939 30.7059 21.2939 32.7059C21.2939 34.7059 22.8234 36.2353 24.8234 36.2353C26.8234 36.2353 28.3528 34.7059 28.3528 32.7059C28.3528 30.7059 26.7057 29.1765 24.8234 29.1765ZM24.8234 33.7648C24.1175 33.7648 23.6469 33.2942 23.6469 32.5883C23.6469 31.8824 24.2351 31.4118 24.8234 31.4118C25.4116 31.4118 25.9998 31.8824 25.9998 32.5883C25.9998 33.2942 25.4116 33.7648 24.8234 33.7648Z" fill="#16658E"/>
<path d="M35.1759 36.1177C37.1759 36.1177 38.7053 34.5883 38.7053 32.5882C38.7053 30.5882 37.1759 29.0588 35.1759 29.0588C33.1759 29.0588 31.6465 30.5882 31.6465 32.5882C31.6465 34.5883 33.1759 36.1177 35.1759 36.1177ZM35.1759 31.5294C35.7641 31.5294 36.3524 32 36.3524 32.7059C36.3524 33.4118 35.8818 33.8824 35.1759 33.8824C34.47 33.8824 33.9994 33.4118 33.9994 32.7059C33.9994 32 34.47 31.5294 35.1759 31.5294Z" fill="#16658E"/>
<path d="M57.529 36.1177C58.2349 36.1177 58.7055 35.6471 58.7055 34.9412V30.353C58.7055 29.6471 58.2349 29.1765 57.529 29.1765C56.8231 29.1765 56.3525 29.6471 56.3525 30.353V34.9412C56.3525 35.6471 56.8231 36.1177 57.529 36.1177Z" fill="#16658E"/>
<path d="M51.7644 36.1177C52.4702 36.1177 52.9408 35.6471 52.9408 34.9412V30.353C52.9408 29.6471 52.4702 29.1765 51.7644 29.1765C51.0585 29.1765 50.5879 29.6471 50.5879 30.353V34.9412C50.5879 35.6471 51.0585 36.1177 51.7644 36.1177Z" fill="#16658E"/>
<path d="M23.294 43.8823C18.9411 43.8823 15.5293 47.4118 15.5293 51.647C15.5293 55.8823 19.0587 59.4118 23.294 59.4118H29.6469V67.1765H25.1764C24.7058 65.1765 22.8234 63.7647 20.7058 63.7647C18.1175 63.7647 16.1175 65.8823 16.1175 68.3529C16.1175 70.8235 18.2352 72.9412 20.7058 72.9412C22.8234 72.9412 24.5881 71.4118 25.1764 69.5294H29.6469C30.9411 69.5294 31.9999 68.4706 31.9999 67.1765V59.4118H37.6469V68.4706C35.6469 68.9412 34.2352 70.8235 34.2352 72.9412C34.2352 75.5294 36.3528 77.5294 38.8234 77.5294C41.294 77.5294 43.4116 75.4118 43.4116 72.9412C43.4116 70.8235 41.8822 69.0588 39.9999 68.4706V59.4118H45.6469V67.1765C45.6469 68.4706 46.7058 69.5294 47.9999 69.5294H52.4705C52.9411 71.5294 54.8234 72.9412 56.9411 72.9412C59.5293 72.9412 61.5293 70.8235 61.5293 68.3529C61.5293 65.8823 59.4116 63.7647 56.9411 63.7647C54.8234 63.7647 52.9411 65.2941 52.4705 67.1765H47.9999V59.4118H56.5881C60.9411 59.4118 64.3528 55.8823 64.3528 51.647C64.3528 47.4118 60.8234 43.8823 56.5881 43.8823H52.9411V40.4706H56.5881C60.9411 40.4706 64.3528 36.9412 64.3528 32.7059C64.3528 28.4706 60.8234 24.9412 56.5881 24.9412H23.294C18.9411 24.9412 15.5293 28.4706 15.5293 32.7059C15.5293 36.9412 19.0587 40.4706 23.294 40.4706H27.0587V43.8823H23.294ZM20.8234 70.7059C19.5293 70.7059 18.5881 69.647 18.5881 68.4706C18.5881 67.2941 19.6469 66.2353 20.8234 66.2353C21.9999 66.2353 23.0587 67.2941 23.0587 68.4706C23.0587 69.647 22.1175 70.7059 20.8234 70.7059ZM41.1764 73.0588C41.1764 74.3529 40.1175 75.2941 38.9411 75.2941C37.7646 75.2941 36.7058 74.2353 36.7058 73.0588C36.7058 71.8823 37.7646 70.8235 38.9411 70.8235C40.1175 70.8235 41.1764 71.7647 41.1764 73.0588ZM56.9411 66.1176C58.2352 66.1176 59.1763 67.1765 59.1763 68.3529C59.1763 69.5294 58.1175 70.5882 56.9411 70.5882C55.6469 70.5882 54.7058 69.5294 54.7058 68.3529C54.7058 67.1765 55.6469 66.1176 56.9411 66.1176ZM62.1175 51.647C62.1175 54.7059 59.6469 57.0588 56.7058 57.0588H23.294C20.2352 57.0588 17.8822 54.5882 17.8822 51.647C17.8822 48.7059 20.3528 46.2353 23.294 46.2353H56.5881C59.6469 46.2353 62.1175 48.7059 62.1175 51.647ZM17.8822 32.5882C17.8822 29.5294 20.3528 27.1765 23.294 27.1765H56.5881C59.6469 27.1765 61.9999 29.647 61.9999 32.5882C61.9999 35.5294 59.5293 38 56.5881 38H23.294C20.3528 38.1176 17.8822 35.647 17.8822 32.5882ZM29.4116 40.4706H50.5881V43.8823H29.4116V40.4706Z" fill="#16658E"/>
<path d="M24.8234 48.1177C22.8234 48.1177 21.2939 49.6471 21.2939 51.6471C21.2939 53.6471 22.8234 55.1765 24.8234 55.1765C26.8234 55.1765 28.3528 53.6471 28.3528 51.6471C28.3528 49.7647 26.7057 48.1177 24.8234 48.1177ZM24.8234 52.8236C24.1175 52.8236 23.6469 52.353 23.6469 51.6471C23.6469 50.9412 24.2351 50.4706 24.8234 50.4706C25.4116 50.4706 25.9998 50.9412 25.9998 51.6471C25.9998 52.353 25.4116 52.8236 24.8234 52.8236Z" fill="#16658E"/>
<path d="M35.1759 48.1177C33.1759 48.1177 31.6465 49.6471 31.6465 51.6471C31.6465 53.6471 33.1759 55.1765 35.1759 55.1765C37.1759 55.1765 38.7053 53.6471 38.7053 51.6471C38.7053 49.7647 37.0582 48.1177 35.1759 48.1177ZM35.1759 52.8236C34.47 52.8236 33.9994 52.353 33.9994 51.6471C33.9994 50.9412 34.5877 50.4706 35.1759 50.4706C35.7641 50.4706 36.3524 50.9412 36.3524 51.6471C36.3524 52.353 35.7641 52.8236 35.1759 52.8236Z" fill="#16658E"/>
<path d="M57.529 55.1765C58.2349 55.1765 58.7055 54.7059 58.7055 54.0001V49.4118C58.7055 48.7059 58.2349 48.2354 57.529 48.2354C56.8231 48.2354 56.3525 48.7059 56.3525 49.4118V54.0001C56.3525 54.5883 56.8231 55.1765 57.529 55.1765Z" fill="#16658E"/>
<path d="M50.5879 49.4118V54.0001C50.5879 54.7059 51.0585 55.1765 51.7644 55.1765C52.4702 55.1765 52.9408 54.7059 52.9408 54.0001V49.4118C52.9408 48.7059 52.4702 48.2354 51.7644 48.2354C51.0585 48.2354 50.5879 48.7059 50.5879 49.4118Z" fill="#16658E"/>
<path d="M68.8231 25.0589C68.3525 15.4119 58.9407 8.58832 49.6466 11.2942C47.176 5.88244 41.7642 2.35303 35.8819 2.35303C28.4701 2.35303 21.9995 7.88244 20.9407 15.1766C15.6466 15.8824 11.4113 20.0001 10.5878 25.2942C5.52895 26.9413 2.11719 31.5295 2.11719 36.9413C2.11719 42.353 5.76425 47.1766 10.8231 48.5883C11.4113 48.8236 12.1172 48.4707 12.2348 47.7648C12.4701 47.1766 12.1172 46.4707 11.4113 46.353C7.29366 45.1766 4.35248 41.2942 4.35248 36.9413C4.35248 32.4707 7.4113 28.4707 11.7642 27.4119C12.2348 27.2942 12.5878 26.8236 12.7054 26.353C13.176 21.5295 17.176 17.7648 21.9995 17.5295C22.5878 17.5295 23.0584 17.0589 23.0584 16.4707C23.6466 9.76479 29.2937 4.70597 35.8819 4.70597C41.176 4.70597 45.9995 8.11773 47.8819 13.0589C48.1172 13.6471 48.8231 14.0001 49.4113 13.7648C57.6466 10.8236 66.5878 16.9413 66.5878 25.7648V26.0001C66.5878 26.5883 67.0584 27.0589 67.529 27.1766C72.2348 28.0001 75.6466 32.1177 75.6466 36.8236C75.6466 41.5295 72.3525 45.5295 67.7643 46.4707C67.176 46.5883 66.7054 47.1766 66.8231 47.8824C66.9407 48.4707 67.529 48.9413 68.2348 48.8236C73.8819 47.6471 78.1172 42.706 78.1172 36.8236C77.8819 31.1766 74.1172 26.353 68.8231 25.0589Z" fill="#2198D5"/>
<path d="M27.6469 17.2941C27.9998 12.8235 31.7645 9.41178 36.2351 9.41178C36.941 9.41178 37.4116 8.94119 37.4116 8.23531C37.4116 7.52943 36.941 7.05884 36.2351 7.05884C30.5881 7.05884 25.7645 11.5294 25.2939 17.0588C25.2939 17.6471 25.7645 18.2353 26.3528 18.353C26.941 18.4706 27.5292 18 27.6469 17.2941Z" fill="#2198D5"/>
</svg>
