<svg width="80" height="80" viewBox="0 0 80 80" fill="none" xmlns="http://www.w3.org/2000/svg">
<g clip-path="url(#clip0_1904_5996)">
<path d="M50.6916 80C50.6349 80 50.5782 79.9962 50.5215 79.9887L49.8026 79.8929H29.308C28.9628 79.8929 28.632 79.7549 28.3894 79.5086C28.1469 79.2622 28.0127 78.9289 28.0177 78.583L28.1248 71.439C28.1248 65.3471 33.6616 62.5176 37.0141 61.7843C38.2905 61.3395 41.7614 61.2802 43.1147 61.7887C46.4684 62.5277 51.9832 65.361 51.9832 71.4579V78.7097C51.9832 79.0814 51.8232 79.4361 51.5422 79.6799C51.3059 79.8879 51.0028 80 50.6916 80ZM30.6179 77.3122H49.4025V71.4579C49.4025 65.8014 42.7481 64.3473 42.4645 64.2881C42.3429 64.2622 42.227 64.2206 42.1186 64.1627C41.5434 63.9472 38.5627 63.9623 37.903 64.2036C37.8451 64.2244 37.7046 64.2748 37.6441 64.2862C37.36 64.346 30.7055 65.8001 30.7055 71.4567L30.6179 77.3122Z" fill="#2198D5"/>
<path d="M40.0005 59.4093C36.3412 59.4093 33.3643 56.4222 33.3643 52.7485C33.3643 49.0753 36.3412 46.0864 40.0005 46.0864C43.6597 46.0864 46.6367 49.0753 46.6367 52.7485C46.6367 56.4222 43.6597 59.4093 40.0005 59.4093ZM40.0005 48.6671C37.7657 48.6671 35.9449 50.4986 35.9449 52.7485C35.9449 54.9977 37.7645 56.8286 40.0005 56.8286C42.2365 56.8286 44.056 54.9977 44.056 52.7485C44.056 50.4986 42.2352 48.6671 40.0005 48.6671Z" fill="#2198D5"/>
<path d="M77.4192 79.9998C77.3625 79.9998 77.3058 79.996 77.2478 79.9885L76.5315 79.8927H56.0375C55.6916 79.8927 55.3615 79.7547 55.1189 79.5084C54.8764 79.262 54.7422 78.9287 54.7472 78.5828L54.8543 71.4388C54.8543 65.3469 60.3911 62.5174 63.7429 61.7841C65.0194 61.338 68.4903 61.2788 69.8423 61.7897C73.1948 62.5275 78.7095 65.3595 78.7095 71.4577V78.7095C78.7095 79.0812 78.5495 79.4359 78.2685 79.681C78.0335 79.8876 77.7305 79.9998 77.4192 79.9998ZM57.3455 77.312H76.1289V71.4577C76.1289 65.8012 69.475 64.3471 69.1909 64.2878C69.0699 64.262 68.9521 64.2204 68.8437 64.1612C68.271 63.9483 65.2903 63.9634 64.6307 64.2022C64.5727 64.2242 64.4322 64.2746 64.3717 64.286C64.0876 64.3458 57.4337 65.7987 57.4337 71.4564L57.3455 77.312Z" fill="#2198D5"/>
<path d="M66.7274 59.4093C63.0681 59.4093 60.0918 56.4222 60.0918 52.7485C60.0918 49.0753 63.0681 46.0864 66.7274 46.0864C70.3873 46.0864 73.3649 49.0753 73.3649 52.7485C73.3649 56.4222 70.3873 59.4093 66.7274 59.4093ZM66.7274 48.6671C64.4926 48.6671 62.6724 50.4986 62.6724 52.7485C62.6724 54.9977 64.4914 56.8286 66.7274 56.8286C68.964 56.8286 70.7842 54.9977 70.7842 52.7485C70.783 50.4986 68.964 48.6671 66.7274 48.6671Z" fill="#2198D5"/>
<path d="M23.9628 79.9998C23.9061 79.9998 23.8488 79.996 23.7908 79.9885L23.0751 79.8927H2.5805C2.23461 79.8927 1.90447 79.7547 1.6619 79.5084C1.41933 79.262 1.28514 78.9287 1.29018 78.5828L1.39728 71.4388C1.39728 65.3469 6.93408 62.5174 10.2865 61.7841C11.5611 61.338 15.0332 61.2788 16.3859 61.7897C19.7396 62.5275 25.2544 65.3608 25.2544 71.4577V78.7095C25.2544 79.0812 25.0944 79.4359 24.8127 79.681C24.5765 79.8876 24.2734 79.9998 23.9628 79.9998ZM3.89035 77.312H22.6737V71.4577C22.6737 65.7999 16.0193 64.3471 15.7357 64.2878C15.6141 64.262 15.497 64.2204 15.3886 64.1612C14.8153 63.9483 11.8345 63.9634 11.1755 64.2022C11.1175 64.2242 10.977 64.2746 10.9159 64.286C10.6324 64.3458 3.97793 65.7987 3.97793 71.4564L3.89035 77.312Z" fill="#2198D5"/>
<path d="M13.2722 59.4093C9.61297 59.4093 6.63477 56.4222 6.63477 52.7485C6.63477 49.0753 9.61297 46.0864 13.2722 46.0864C16.9315 46.0864 19.9085 49.0753 19.9085 52.7485C19.9085 56.4222 16.9315 59.4093 13.2722 59.4093ZM13.2722 48.6671C11.0362 48.6671 9.21541 50.4986 9.21541 52.7485C9.21541 54.9977 11.035 56.8286 13.2722 56.8286C15.507 56.8286 17.3278 54.9977 17.3278 52.7485C17.3278 50.4986 15.5083 48.6671 13.2722 48.6671Z" fill="#2198D5"/>
<path d="M48.5508 15.8838H51.1314V29.0308H48.5508V15.8838Z" fill="#16658E"/>
<path d="M53.7578 20.6055H56.3385V29.031H53.7578V20.6055Z" fill="#16658E"/>
<path d="M58.7744 16.7139H61.3551V29.0312H58.7744V16.7139Z" fill="#16658E"/>
<path d="M65.6943 6.75488H68.275V29.0312H65.6943V6.75488Z" fill="#16658E"/>
<path d="M73.6519 34.8116H36.1588C35.4456 34.8116 34.8685 34.2351 34.8685 33.5213C34.8685 32.8075 35.4456 32.231 36.1588 32.231H72.3616V2.58065H29.0211V25.9885C29.0211 26.7017 28.444 27.2789 27.7308 27.2789C27.0169 27.2789 26.4404 26.7017 26.4404 25.9885V1.29032C26.4404 0.576487 27.0169 0 27.7308 0H73.6519C74.3657 0 74.9422 0.576487 74.9422 1.29032V33.5213C74.9422 34.2332 74.3657 34.8116 73.6519 34.8116Z" fill="#16658E"/>
<path d="M16.4004 16.6362C12.4097 16.6362 9.16309 13.377 9.16309 9.36928C9.16309 5.36412 12.4109 2.10303 16.4004 2.10303C20.3904 2.10303 23.6383 5.36223 23.6383 9.36928C23.6383 13.3757 20.3917 16.6362 16.4004 16.6362ZM16.4004 4.68367C13.8329 4.68367 11.7437 6.78549 11.7437 9.36928C11.7437 11.9537 13.8329 14.0555 16.4004 14.0555C18.9684 14.0555 21.0576 11.9537 21.0576 9.36928C21.0576 6.78549 18.9684 4.68367 16.4004 4.68367Z" fill="#16658E"/>
<path d="M23.5537 44.0153H9.66513C8.9513 44.0153 8.37481 43.4389 8.37481 42.725V40.7599C7.78005 40.9483 7.13741 40.9861 6.50107 40.8544C4.80059 40.5111 3.56445 38.9561 3.56445 37.1611V30.9111C3.56445 27.3457 4.62733 23.9082 6.64031 20.9716C7.34218 19.9472 8.27274 19.1703 9.32806 18.7268C10.4136 18.27 11.559 18.04 12.7385 18.04H20.4495C20.6404 18.04 20.8313 18.0476 21.021 18.0634C23.1631 18.236 25.1748 19.5017 26.4015 21.4492L29.301 26.0592L35.0312 29.1823C37.002 30.2572 37.9357 32.5266 37.2521 34.578C36.857 35.7599 36.021 36.6968 34.8957 37.2153C33.7938 37.7263 32.5104 37.7565 31.3814 37.2997C31.3347 37.2815 31.2894 37.2594 31.2472 37.2348L24.8724 33.7482L24.8453 42.7307C24.8415 43.4401 24.2651 44.0153 23.5537 44.0153ZM10.9555 41.4347H22.2678L22.2962 31.5689L22.3025 29.5559C22.305 28.844 22.8815 28.27 23.5928 28.27H23.5966C24.3085 28.2725 24.8831 28.849 24.8831 29.5603V29.5641L24.8793 30.8091L32.4083 34.9276C32.8714 35.0984 33.3666 35.0763 33.8133 34.8684C34.2859 34.6517 34.638 34.2566 34.8044 33.7589C35.0879 32.9084 34.6544 31.9135 33.7963 31.4454L27.7706 28.1616C27.5772 28.0558 27.4146 27.9033 27.2962 27.7149L24.2159 22.8208C23.4208 21.5576 22.1475 20.741 20.8118 20.6339C20.6908 20.6232 20.5692 20.6182 20.4483 20.6182H12.7372C11.9037 20.6182 11.0947 20.782 10.3279 21.1033C9.7294 21.3534 9.19008 21.8127 8.76922 22.427C7.05236 24.9346 6.1451 27.8674 6.1451 30.9086V37.1611C6.1451 37.725 6.51934 38.2259 7.01455 38.3254C7.48204 38.4193 7.80967 38.2259 7.96024 38.1018C8.2236 37.8863 8.37481 37.5662 8.37481 37.2248V28.6411C8.37481 27.9279 8.9513 27.3508 9.66513 27.3508C10.3783 27.3508 10.9555 27.9279 10.9555 28.6411V41.4347Z" fill="#16658E"/>
<path d="M32.9609 30.1665L41.6731 17.2368L43.8121 18.6783L35.0999 31.608L32.9609 30.1665Z" fill="#16658E"/>
</g>
<defs>
<clipPath id="clip0_1904_5996">
<rect width="80" height="80" fill="white"/>
</clipPath>
</defs>
</svg>
