<svg width="80" height="80" viewBox="0 0 80 80" fill="none" xmlns="http://www.w3.org/2000/svg">
<g clip-path="url(#clip0_1797_6282)">
<path d="M26.7576 41.5742C19.5718 41.5742 13.7256 47.4204 13.7256 54.6063C13.7256 61.7921 19.5718 67.6376 26.7576 67.6376C33.9428 67.6376 39.789 61.7921 39.789 54.6063C39.789 51.9953 39.0192 49.4748 37.5629 47.3194C37.1844 46.7586 36.4231 46.611 35.8623 46.9896C35.3016 47.3688 35.1547 48.1301 35.5332 48.6902C36.7155 50.4402 37.3398 52.4855 37.3398 54.6063C37.3398 60.4411 32.5925 65.1884 26.7576 65.1884C20.9228 65.1884 16.1755 60.4411 16.1755 54.6063C16.1755 48.7714 20.9228 44.0241 26.7576 44.0241C27.4342 44.0241 27.9822 43.4761 27.9822 42.7995C27.9822 42.123 27.4342 41.5742 26.7576 41.5742Z" fill="#2198D5"/>
<path d="M49.3982 66.2265L46.1955 63.0238C45.9081 62.7356 45.8297 62.2907 45.9879 61.9108C45.9907 61.9037 46.0055 61.8684 46.0083 61.8613C46.1736 61.4623 46.543 61.2045 46.949 61.2045H51.4788C52.1547 61.2045 52.7034 60.6558 52.7034 59.9799V47.8335C52.7034 47.1569 52.1547 46.6089 51.4788 46.6089H46.949C46.543 46.6089 46.1736 46.3504 45.9956 45.9217C45.8297 45.522 45.9081 45.0771 46.1955 44.7889L49.3982 41.5862C49.8771 41.1081 49.8771 40.3326 49.3982 39.8545L40.8098 31.2654C40.3317 30.7872 39.5562 30.7872 39.0774 31.2654C38.5993 31.7442 38.5993 32.5196 39.0774 32.9977L46.8007 40.7204L44.4638 43.0573C43.4716 44.0488 43.1855 45.5425 43.7456 46.8893C44.2908 48.2064 45.5486 49.0581 46.949 49.0581H50.2542V58.7546H46.949C45.5486 58.7546 44.2908 59.6063 43.7541 60.903C43.7519 60.9093 43.7371 60.9439 43.7343 60.9503C43.1848 62.2702 43.4716 63.7639 44.4638 64.7554L46.8007 67.0924L39.944 73.9491L37.607 71.6122C36.6148 70.62 35.1211 70.334 33.775 70.894C32.4579 71.4399 31.6062 72.6977 31.6062 74.0981V77.4026H21.909V74.0981C21.909 72.697 21.058 71.4399 19.714 70.8834C18.3941 70.334 16.9004 70.6207 15.9081 71.6122L13.5719 73.9491L6.71516 67.0924L9.05208 64.7554C10.0436 63.7632 10.3296 62.2695 9.77031 60.9242C9.22439 59.6063 7.9666 58.7546 6.56615 58.7546H3.2617V49.0581H6.56685C7.96731 49.0581 9.2244 48.2064 9.7809 46.8624C10.3296 45.5425 10.0436 44.0488 9.05208 43.0566L6.71516 40.7204L13.5719 33.8636L15.9089 36.2005C16.9004 37.1927 18.3941 37.4788 19.7401 36.9187C21.058 36.3728 21.909 35.115 21.909 33.7153V30.4101H31.6062V33.7153C31.6062 35.1157 32.4579 36.3735 33.775 36.9187C34.2164 37.1016 34.6585 37.305 35.0872 37.524C35.6889 37.8305 36.4269 37.5911 36.7341 36.9886C37.0413 36.3855 36.8012 35.6482 36.1988 35.341C35.7129 35.0938 35.2129 34.8629 34.7122 34.6553C34.3132 34.49 34.0554 34.1213 34.0554 33.7146V29.1855C34.0554 28.5089 33.5074 27.9602 32.8308 27.9602H20.6844C20.0085 27.9602 19.4598 28.5089 19.4598 29.1855V33.7146C19.4598 34.1213 19.202 34.49 18.7733 34.668C18.3736 34.8346 17.9287 34.7562 17.6405 34.4681L14.4378 31.2654C13.9597 30.7872 13.1842 30.7872 12.7061 31.2654L4.11695 39.8538C3.63883 40.3326 3.63883 41.1081 4.11695 41.5862L7.31969 44.7889C7.60784 45.0771 7.68623 45.5213 7.5238 45.9118C7.52238 45.9161 7.50896 45.9479 7.50685 45.9514C7.34159 46.3504 6.97294 46.6082 6.56685 46.6082H2.0371C1.36053 46.6082 0.8125 47.1569 0.8125 47.8328V59.9799C0.8125 60.6558 1.36053 61.2045 2.0371 61.2045H6.56685C6.97294 61.2045 7.34229 61.4623 7.51956 61.891C7.68623 62.2907 7.60784 62.7356 7.31969 63.0238L4.11695 66.2265C3.63883 66.7046 3.63883 67.4801 4.11695 67.9589L12.7061 76.5474C13.1842 77.0255 13.9597 77.0255 14.4385 76.5474L17.6412 73.3446C17.9287 73.0565 18.3736 72.9788 18.7641 73.1405C18.7677 73.1419 18.7994 73.1553 18.803 73.1575C19.202 73.3227 19.4598 73.6914 19.4598 74.0981V78.6272C19.4598 79.3038 20.0085 79.8518 20.6851 79.8518H32.8308C33.5074 79.8518 34.0561 79.3038 34.0561 78.6272V74.0981C34.0561 73.6914 34.3139 73.322 34.6988 73.1624C34.7044 73.1603 34.7376 73.1469 34.7426 73.144C35.143 72.9781 35.5872 73.0565 35.8754 73.3439L39.0781 76.5466C39.3076 76.7769 39.6191 76.9054 39.944 76.9054C40.2688 76.9054 40.5803 76.7769 40.8098 76.5474L49.3989 67.9582C49.8771 67.4801 49.8771 66.7046 49.3982 66.2265Z" fill="#2198D5"/>
<path d="M62.0127 50.2165C62.0127 54.5641 65.5502 58.1016 69.8984 58.1016C74.2467 58.1016 77.7842 54.5641 77.7842 50.2165C77.7842 45.8676 74.2467 42.3301 69.8984 42.3301C65.5502 42.3301 62.0127 45.8676 62.0127 50.2165ZM75.335 50.2165C75.335 53.2138 72.8964 55.6524 69.8984 55.6524C66.9012 55.6524 64.4619 53.2138 64.4619 50.2165C64.4619 47.2186 66.9012 44.78 69.8984 44.78C72.8964 44.78 75.335 47.2186 75.335 50.2165Z" fill="#16658E"/>
<path d="M77.9024 73.9507C78.5782 73.9507 79.127 73.4027 79.127 72.7261V69.6583C79.127 64.5699 74.9878 60.4307 69.8987 60.4307C64.8103 60.4307 60.6704 64.5699 60.6704 69.6583V77.5447H45.7598C45.0839 77.5447 44.5352 78.0927 44.5352 78.7693C44.5352 79.4459 45.0839 79.9939 45.7598 79.9939H61.8357C61.8561 79.9953 61.8752 80.0003 61.895 80.0003H77.9024C78.5782 80.0003 79.127 79.4515 79.127 78.7757C79.127 78.0991 78.5782 77.5504 77.9024 77.5504H63.1203V69.6583C63.1203 65.9209 66.1613 62.8799 69.8987 62.8799C73.6367 62.8799 76.6778 65.9209 76.6778 69.6583V72.7261C76.6778 73.4027 77.2258 73.9507 77.9024 73.9507Z" fill="#16658E"/>
<path d="M10.6103 27.1947C11.2862 27.1947 11.8349 26.6466 11.8349 25.9701V5.37572H19.9587C20.6353 5.37572 21.1833 4.82768 21.1833 4.15111C21.1833 3.47525 20.6353 2.92651 19.9587 2.92651H10.6103C9.93378 2.92651 9.38574 3.47525 9.38574 4.15111V25.9701C9.38574 26.6466 9.93378 27.1947 10.6103 27.1947Z" fill="#16658E"/>
<path d="M61.5644 5.37572H69.869V35.0147C69.869 35.6913 70.4177 36.2393 71.0936 36.2393C71.7702 36.2393 72.3182 35.6913 72.3182 35.0147V4.15111C72.3182 3.47525 71.7702 2.92651 71.0936 2.92651H61.5644C60.8886 2.92651 60.3398 3.47525 60.3398 4.15111C60.3398 4.82768 60.8886 5.37572 61.5644 5.37572Z" fill="#16658E"/>
<path d="M27.2019 10.6506H54.5026C55.1784 10.6506 55.7272 10.1026 55.7272 9.42604V1.2246C55.7272 0.548034 55.1784 0 54.5026 0H27.2019C26.5253 0 25.9766 0.548034 25.9766 1.2246V9.42604C25.9766 10.1026 26.5253 10.6506 27.2019 10.6506ZM28.4265 2.4492H53.278V8.20144H28.4265V2.4492Z" fill="#16658E"/>
<path d="M26.7578 46.6831C26.0812 46.6831 25.5332 47.2311 25.5332 47.9077V54.6063C25.5332 55.2829 26.0812 55.8309 26.7578 55.8309H31.2261C31.902 55.8309 32.4507 55.2829 32.4507 54.6063C32.4507 53.9297 31.902 53.3817 31.2261 53.3817H27.9824V47.9077C27.9824 47.2311 27.4344 46.6831 26.7578 46.6831Z" fill="#2198D5"/>
<path d="M24.1777 20.2893H51.828C52.5046 20.2893 53.0526 19.7413 53.0526 19.0647C53.0526 18.3881 52.5046 17.8401 51.828 17.8401H24.1777C23.5012 17.8401 22.9531 18.3881 22.9531 19.0647C22.9531 19.7413 23.5012 20.2893 24.1777 20.2893Z" fill="#16658E"/>
<path d="M51.8285 27.7244H46.2119C45.536 27.7244 44.9873 28.2724 44.9873 28.949C44.9873 29.6255 45.536 30.1736 46.2119 30.1736H51.8285C52.5044 30.1736 53.0531 29.6255 53.0531 28.949C53.0531 28.2724 52.5044 27.7244 51.8285 27.7244Z" fill="#16658E"/>
<path d="M59.1937 21.6657C59.4331 21.9044 59.746 22.0237 60.0596 22.0237C60.3731 22.0237 60.6867 21.9044 60.9254 21.6649L64.3951 18.1952C64.8732 17.7171 64.8732 16.9417 64.3951 16.4636C63.9163 15.9855 63.1408 15.9855 62.6627 16.4636L60.0596 19.0674L59.0278 18.0356C58.5496 17.5575 57.7735 17.5575 57.2961 18.0363C56.818 18.5145 56.818 19.2899 57.2961 19.768L59.1937 21.6657Z" fill="#16658E"/>
<path d="M59.1937 31.5502C59.4331 31.7889 59.746 31.9089 60.0596 31.9089C60.3731 31.9089 60.6867 31.7889 60.9254 31.5502L64.3951 28.0805C64.8732 27.6024 64.8732 26.8269 64.3951 26.3481C63.9163 25.87 63.1408 25.87 62.6627 26.3481L60.0596 28.952L59.0278 27.9209C58.5496 27.442 57.7735 27.442 57.2961 27.9209C56.818 28.399 56.818 29.1744 57.2961 29.6525L59.1937 31.5502Z" fill="#16658E"/>
</g>
<defs>
<clipPath id="clip0_1797_6282">
<rect width="80" height="80" fill="white"/>
</clipPath>
</defs>
</svg>
