<svg width="80" height="80" viewBox="0 0 80 80" fill="none" xmlns="http://www.w3.org/2000/svg">
<g clip-path="url(#clip0_1904_6034)">
<path d="M59.3501 49.1273C59.7871 49.1273 60.2064 48.882 60.4078 48.4615C63.6366 41.7189 64.2048 34.8366 64.3385 29.5937C64.3556 28.9424 63.9204 28.3534 63.2808 28.1606C56.7409 26.1928 51.8989 22.2218 49.6455 16.9789C49.0486 15.5898 46.8953 16.515 47.4922 17.9042C49.9501 23.6226 55.0789 27.9732 61.9764 30.2083C61.8153 35.1241 61.197 41.3875 58.2942 47.4489C57.9341 48.2008 58.5121 49.1273 59.3501 49.1273Z" fill="#16658E"/>
<path d="M40 28.3638C36.6064 28.3638 33.8452 31.1244 33.8452 34.5179V37.3073C32.1112 37.5825 30.7812 39.0876 30.7812 40.8979V52.0625C30.7812 54.0681 32.4127 55.699 34.4177 55.699H39.6875C41.1993 55.699 41.1993 53.3552 39.6875 53.3552H34.4177C33.7048 53.3552 33.125 52.7754 33.125 52.0625V40.8979C33.125 40.1851 33.7048 39.6052 34.4177 39.6052H45.5823C46.2952 39.6052 46.875 40.1851 46.875 40.8979V52.0625C46.875 52.7754 46.2946 53.3552 45.5823 53.3552C44.0704 53.3552 44.0704 55.699 45.5823 55.699C47.5873 55.699 49.2188 54.0681 49.2188 52.0625V40.8979C49.2188 39.0876 47.8888 37.5825 46.1548 37.3073V34.5186C46.1548 31.1244 43.3936 28.3638 40 28.3638ZM40 30.7075C42.1014 30.7075 43.811 32.4171 43.811 34.5179V37.2615H36.189V34.5179C36.189 32.4171 37.8986 30.7075 40 30.7075Z" fill="#2198D5"/>
<path d="M38.8281 44.5269V48.7456C38.8281 49.3932 39.3524 49.9175 40 49.9175C40.6476 49.9175 41.1719 49.3932 41.1719 48.7456V44.5269C41.1719 43.8799 40.6476 43.355 40 43.355C39.3524 43.355 38.8281 43.8799 38.8281 44.5269Z" fill="#2198D5"/>
<path d="M65.7336 67.24H76.3281C76.9757 67.24 77.5 66.7157 77.5 66.0681V57.6526C78.9484 57.1875 80 55.8282 80 54.2273C80 52.2437 78.3862 50.6299 76.4032 50.6299C74.4196 50.6299 72.8058 52.2437 72.8058 54.2273C72.8058 55.7727 73.7854 57.0935 75.1562 57.6013V64.8962H55.7172C56.2006 64.4373 56.6724 63.9728 57.1289 63.5022C60.5554 59.9756 63.3258 56.0291 65.365 51.7719C69.3359 43.479 70.0293 35.1898 70.1904 28.8947C70.2612 26.1224 68.4442 23.6249 65.7709 22.8204C63.9825 22.2821 62.4359 21.6315 61.0938 20.9106V15.625H73.0884C73.6353 16.9165 74.9152 17.8241 76.4032 17.8241C78.3862 17.8241 80 16.2103 80 14.2273C80 12.2437 78.3862 10.6299 76.4032 10.6299C74.7467 10.6299 73.3496 11.7554 72.9327 13.2812H66.4062V7.02271C67.8546 6.55762 68.9062 5.19836 68.9062 3.59741C68.9062 1.61377 67.2925 0 65.3094 0C63.3258 0 61.712 1.61377 61.712 3.59741C61.712 5.14221 62.6917 6.46301 64.0625 6.97144V13.2812H59.9219C59.2749 13.2812 58.75 13.8062 58.75 14.4531V19.4397C55.8795 17.3383 54.3066 14.92 53.4479 12.9218C52.4786 10.6671 50.2533 9.21082 47.7783 9.21082H38.5156V3.90991C38.5156 3.26233 37.9913 2.73804 37.3438 2.73804H26.2665C25.8264 1.24756 24.447 0.15625 22.8156 0.15625C20.8325 0.15625 19.2188 1.77002 19.2188 3.75366C19.2188 5.73669 20.8325 7.35046 22.8156 7.35046C24.3304 7.35046 25.6281 6.4093 26.1578 5.08179H36.1719V9.21082H32.2217C29.7467 9.21082 27.5214 10.6677 26.5527 12.9218C25.257 15.9369 22.3383 19.9072 15.7812 22.3029V6.79688C15.7812 6.1499 15.257 5.625 14.6094 5.625H9.99268C9.5282 4.1748 8.16772 3.12134 6.56555 3.12134C4.58252 3.12134 2.96875 4.73511 2.96875 6.71875C2.96875 8.70239 4.58252 10.3162 6.56555 10.3162C8.10974 10.3162 9.42993 9.33777 9.93896 7.96875H13.4375V15.7812H6.97021C6.46118 14.4122 5.14099 13.4338 3.5968 13.4338C1.61377 13.4338 0 15.0476 0 17.0312C0 19.0149 1.61377 20.6287 3.5968 20.6287C5.19897 20.6287 6.55945 19.5752 7.02393 18.125H13.4375V23.1195C11.2048 24.1394 9.74609 26.4062 9.80957 28.8947C9.9054 32.641 10.1758 35.7825 10.661 38.7805C10.9021 40.2728 13.2159 39.8987 12.9742 38.4064C12.5067 35.5145 12.2455 32.4725 12.1521 28.8342C12.1106 27.2064 13.125 25.7312 14.646 25.1544C14.8773 25.1471 15.0916 25.0739 15.2704 24.9518C19.1803 23.7164 25.7654 20.6891 28.7061 13.847C29.3042 12.4542 30.6842 11.5546 32.2217 11.5546H47.7783C49.3158 11.5546 50.6958 12.4542 51.2946 13.847C54.3286 20.907 61.2439 23.9056 65.0958 25.0647C66.7596 25.5658 67.8918 27.1155 67.8479 28.8348C67.6929 34.8969 67.03 42.8674 63.2507 50.7593C59.0936 59.4409 52.041 66.4136 41.6901 72.0758C40.6317 72.655 39.3683 72.655 38.3099 72.0758C25.7397 65.1996 17.9333 56.283 14.4446 44.8151C14.0051 43.3685 11.7627 44.0509 12.2021 45.4974C13.6182 50.152 15.705 54.4019 18.4821 58.2812H14.314C13.8049 56.9122 12.4847 55.9338 10.9406 55.9338C8.95752 55.9338 7.34375 57.5476 7.34375 59.5312C7.34375 61.5149 8.95752 63.1287 10.9406 63.1287C12.5427 63.1287 13.9032 62.0752 14.3677 60.625H19.1406V67.0312H6.97144C6.46301 65.6604 5.14221 64.6808 3.59741 64.6808C1.61377 64.6808 0 66.2946 0 68.2776C0 70.2612 1.61377 71.875 3.5968 71.875C5.19775 71.875 6.55762 70.8234 7.02271 69.375H14.9219V73.0029C13.512 73.49 12.4969 74.8297 12.4969 76.4026C12.4969 78.3862 14.1101 80 16.0938 80C18.0774 80 19.6906 78.3862 19.6906 76.4026C19.6906 74.8297 18.6749 73.49 17.2656 73.0029V69.375H20.3125C20.9601 69.375 21.4844 68.8501 21.4844 68.2031V62.0288C25.5798 66.6205 30.7928 70.6354 37.1851 74.1321C38.0664 74.6143 39.0332 74.8553 40 74.8553C40.9668 74.8553 41.9336 74.6143 42.8149 74.1321C46.6266 72.0471 50.058 69.7388 53.0719 67.24H63.3899V76.474C63.3899 77.121 63.9142 77.6459 64.5618 77.6459H73.0273C73.5345 79.0186 74.856 80 76.4032 80C78.3862 80 80 78.3862 80 76.4026C80 74.4196 78.3862 72.8058 76.4032 72.8058C74.8035 72.8058 73.4448 73.8556 72.9785 75.3021H65.7336V67.24ZM76.4032 52.9736C77.0941 52.9736 77.6562 53.5364 77.6562 54.2273C77.6562 54.9182 77.0941 55.4803 76.4032 55.4803C75.7117 55.4803 75.1495 54.9182 75.1495 54.2273C75.1495 53.5364 75.7117 52.9736 76.4032 52.9736ZM65.3094 2.34375C66.0004 2.34375 66.5625 2.90588 66.5625 3.59741C66.5625 4.27795 66.0162 4.83276 65.3387 4.84924C65.3046 4.84619 65.2698 4.84375 65.2344 4.84375C65.2246 4.84375 65.2148 4.84497 65.2045 4.84558C64.5624 4.79187 64.0558 4.25293 64.0558 3.59741C64.0558 2.90588 64.6179 2.34375 65.3094 2.34375ZM76.4032 12.9736C77.0941 12.9736 77.6562 13.5364 77.6562 14.2273C77.6562 14.9182 77.0941 15.4803 76.4032 15.4803C75.7117 15.4803 75.1495 14.9182 75.1495 14.2273C75.1495 13.5364 75.7117 12.9736 76.4032 12.9736ZM22.8156 5.00671C22.1246 5.00671 21.5625 4.44458 21.5625 3.75366C21.5625 3.06213 22.1246 2.5 22.8156 2.5C23.5071 2.5 24.0692 3.06213 24.0692 3.75366C24.0692 4.44458 23.5071 5.00671 22.8156 5.00671ZM6.56555 7.97241C5.87463 7.97241 5.3125 7.40967 5.3125 6.71875C5.3125 6.02783 5.87463 5.46509 6.56555 5.46509C7.25708 5.46509 7.81921 6.02783 7.81921 6.71875C7.81921 7.40967 7.25708 7.97241 6.56555 7.97241ZM3.5968 18.2849C2.90588 18.2849 2.34375 17.7222 2.34375 17.0312C2.34375 16.3403 2.90588 15.7776 3.5968 15.7776C4.25232 15.7776 4.79065 16.283 4.84497 16.9244C4.84497 16.9342 4.84375 16.9434 4.84375 16.9531C4.84375 16.9891 4.84619 17.0251 4.84924 17.0599C4.83337 17.738 4.27856 18.2849 3.5968 18.2849ZM16.0938 77.6562C15.4028 77.6562 14.8407 77.0941 14.8407 76.4026C14.8407 75.7343 15.3668 75.188 16.0266 75.1526C16.0492 75.1538 16.0712 75.1562 16.0938 75.1562C16.1163 75.1562 16.1389 75.1538 16.1609 75.1526C16.8207 75.188 17.3474 75.7343 17.3474 76.4026C17.3468 77.0941 16.7847 77.6562 16.0938 77.6562ZM3.5968 69.5312C2.90588 69.5312 2.34375 68.9691 2.34375 68.2776C2.34375 67.5867 2.90588 67.0245 3.5968 67.0245C4.28833 67.0245 4.85046 67.5867 4.85046 68.2776C4.85046 68.9691 4.28833 69.5312 3.5968 69.5312ZM10.9406 60.7849C10.2496 60.7849 9.6875 60.2222 9.6875 59.5312C9.6875 58.8403 10.2496 58.2776 10.9406 58.2776C11.6321 58.2776 12.1942 58.8403 12.1942 59.5312C12.1942 60.2222 11.6321 60.7849 10.9406 60.7849ZM76.4032 75.1495C77.0941 75.1495 77.6562 75.7117 77.6562 76.4026C77.6562 77.0941 77.0941 77.6562 76.4032 77.6562C75.7117 77.6562 75.1495 77.0941 75.1495 76.4026C75.1495 75.7117 75.7117 75.1495 76.4032 75.1495Z" fill="#16658E"/>
</g>
<defs>
<clipPath id="clip0_1904_6034">
<rect width="80" height="80" fill="white"/>
</clipPath>
</defs>
</svg>
