<svg width="80" height="80" viewBox="0 0 80 80" fill="none" xmlns="http://www.w3.org/2000/svg">
<g clip-path="url(#clip0_1795_5886)">
<path d="M78.8281 67.752H76.7547V25.651C76.7547 22.5674 74.2453 20.0588 71.1609 20.0588H68.4083C68.7092 19.4291 68.8752 18.7307 68.8752 18.0049C68.8752 16.2377 67.9053 14.6259 66.3439 13.7982L51.0205 5.68102C50.4486 5.37789 49.7392 5.59602 49.4364 6.16805C49.1334 6.73992 49.3516 7.44914 49.9234 7.75211L65.2466 15.8691C66.0511 16.2955 66.5314 17.094 66.5314 18.0049C66.5314 18.9159 66.0511 19.7141 65.2469 20.1404L50.3512 28.0313L40.8813 17.2323C40.4545 16.7455 39.7141 16.6971 39.2275 17.1238C38.7409 17.5505 38.6923 18.291 39.1191 18.7776L48.2228 29.159L42.5866 32.1448C40.967 33.0015 39.0334 33.0015 37.4144 32.1451L14.7534 20.1407C13.9491 19.7143 13.4686 18.9159 13.4686 18.0051C13.4686 17.0943 13.9489 16.2959 14.7531 15.8695L37.4136 3.86508C39.0331 3.0082 40.9667 3.0082 42.5856 3.86477L45.8294 5.58352C46.4013 5.88664 47.1106 5.66867 47.4136 5.0968C47.7166 4.52492 47.4986 3.81555 46.9269 3.51258L43.6825 1.79352C41.3766 0.573359 38.6231 0.573359 36.317 1.79367L13.6558 13.7985C12.0947 14.626 11.125 16.2379 11.125 18.0051C11.125 18.7309 11.2909 19.4291 11.5919 20.059H8.83906C5.75469 20.059 3.24531 22.5676 3.24531 25.6512V67.7521H1.17188C0.524687 67.7521 0 68.2768 0 68.924V71.5213C0 75.7121 3.40937 79.1216 7.60016 79.1216H72.3997C76.5905 79.1216 80 75.7123 80 71.5213V68.924C80 68.2766 79.4753 67.752 78.8281 67.752ZM50.0806 47.4213L51.6086 50.0679C51.9244 50.6149 51.7138 51.0979 51.6086 51.2801C51.5034 51.4623 51.1905 51.8862 50.5587 51.8862H49.6023C48.9706 51.8862 48.6578 51.4623 48.5525 51.2801C48.4472 51.0977 48.2367 50.6149 48.5525 50.0679L50.0806 47.4213ZM51.2525 30.2063L56.1016 27.6376V32.2912C56.1016 35.6334 54.2128 38.6296 51.2525 40.0524V30.2063ZM39.9998 35.1315C41.2647 35.1315 42.5298 34.8263 43.683 34.2163L48.9087 31.448V40.9591C42.5059 43.0801 35.422 42.842 29.1725 40.2445C25.9686 38.9129 23.8984 35.791 23.8984 32.2913V27.6374L36.3177 34.2165C37.4705 34.8266 38.735 35.1315 39.9998 35.1315ZM5.58906 25.651C5.58906 23.8598 7.04703 22.4026 8.83906 22.4026H14.0167L19.9156 25.5276H9.88594C9.23875 25.5276 8.71406 26.0523 8.71406 26.6995V63.4557C8.71406 64.1029 9.23875 64.6276 9.88594 64.6276H16.0719C16.7191 64.6276 17.2437 64.1029 17.2437 63.4557C17.2437 62.8085 16.7191 62.2838 16.0719 62.2838H11.0578V27.8713H21.5547V32.2912C21.5547 36.741 24.1917 40.7123 28.2731 42.4087C31.9994 43.9574 35.9997 44.7318 40.0002 44.7318C43.0086 44.7318 46.0169 44.2935 48.9089 43.4176V44.7635L46.523 48.896C45.8802 50.0093 45.8802 51.3387 46.523 52.452C47.1658 53.5652 48.3169 54.2299 49.6025 54.2299H50.5589C51.8445 54.2299 52.9956 53.5652 53.6384 52.452C54.2812 51.3387 54.2812 50.0093 53.6384 48.896L51.2525 44.7635V42.5988C51.4109 42.5362 51.5695 42.4741 51.727 42.4087C55.8083 40.7123 58.4453 36.741 58.4453 32.2912V27.8713H68.9422V62.2838H20.7594C20.1122 62.2838 19.5875 62.8085 19.5875 63.4557C19.5875 64.1029 20.1122 64.6276 20.7594 64.6276H70.1141C70.7613 64.6276 71.2859 64.1029 71.2859 63.4557V26.6995C71.2859 26.0523 70.7613 25.5276 70.1141 25.5276H60.0842L65.9831 22.4026H71.1608C72.9528 22.4026 74.4108 23.8598 74.4108 25.651V67.752H5.58906V25.651ZM47.2469 70.0963C46.8139 71.3565 45.6166 72.2648 44.2114 72.2648H35.7887C34.3834 72.2648 33.1862 71.3565 32.7531 70.0963H47.2469ZM77.6562 71.5212C77.6562 74.4196 75.2981 76.7777 72.3997 76.7777H7.60016C4.70172 76.7777 2.34375 74.4196 2.34375 71.5212V70.0957H4.40516C4.40922 70.0957 4.41313 70.0963 4.41719 70.0963H30.3355C30.8239 72.6623 33.0827 74.6085 35.7887 74.6085H44.2114C46.9173 74.6085 49.1761 72.6621 49.6645 70.0963H75.5828C75.5869 70.0963 75.5908 70.0957 75.5948 70.0957H77.6562V71.5212Z" fill="#16658E"/>
<path d="M40.3547 57.9871C40.3547 57.3399 39.83 56.8152 39.1828 56.8152H15.7227C15.0755 56.8152 14.5508 57.3399 14.5508 57.9871C14.5508 58.6342 15.0755 59.1589 15.7227 59.1589H39.183C39.83 59.1589 40.3547 58.6342 40.3547 57.9871Z" fill="#2198D5"/>
<path d="M15.7227 54.23H31.4086C32.0558 54.23 32.5805 53.7053 32.5805 53.0581C32.5805 52.4109 32.0558 51.8862 31.4086 51.8862H15.7227C15.0755 51.8862 14.5508 52.4109 14.5508 53.0581C14.5508 53.7053 15.0753 54.23 15.7227 54.23Z" fill="#2198D5"/>
</g>
<defs>
<clipPath id="clip0_1795_5886">
<rect width="80" height="80" fill="white"/>
</clipPath>
</defs>
</svg>
