<svg width="80" height="80" viewBox="0 0 80 80" fill="none" xmlns="http://www.w3.org/2000/svg">
<g clip-path="url(#clip0_1795_5835)">
<path d="M45.2414 53.9732C51.2361 50.1174 55.6086 44.1969 57.5307 37.3332H59.4441C60.251 39.3052 61.6268 40.9924 63.3961 42.1796C65.1654 43.3669 67.248 44.0006 69.3788 43.9999C69.7165 43.9999 70.0565 43.9839 70.3988 43.9519C72.2789 43.7626 74.0751 43.0772 75.6034 41.9658C77.1317 40.8544 78.3374 39.357 79.097 37.6267C79.8566 35.8963 80.1429 33.9953 79.9266 32.118C79.7103 30.2407 78.9992 28.4546 77.866 26.9424C76.7328 25.4302 75.2182 24.2462 73.4772 23.5115C71.7362 22.7768 69.8312 22.5178 67.9572 22.761C66.0832 23.0042 64.3075 23.7409 62.8117 24.8956C61.3159 26.0504 60.1537 27.5819 59.4441 29.3332H58.6668C58.6668 28.8732 58.6521 28.3892 58.6294 27.8586C58.2115 20.6484 55.1706 13.8401 50.0801 8.71686C44.9895 3.59362 38.2008 0.509313 30.9934 0.0452471C27.0081 -0.179303 23.0188 0.411644 19.2698 1.78193C15.5207 3.15222 12.0906 5.27304 9.18937 8.01462C6.28816 10.7562 3.97682 14.0609 2.39677 17.7265C0.816724 21.3921 0.00119432 25.3416 7.87103e-05 29.3332C-0.0113259 34.2456 1.21679 39.0815 3.57075 43.3932C5.9247 47.7049 9.3284 51.3531 13.4667 53.9999C14.5253 54.6979 15.416 55.622 16.0744 56.7057C16.7329 57.7893 17.1429 59.0055 17.2747 60.2666C16.6628 60.4899 16.1154 60.8604 15.6807 61.3456C15.246 61.8307 14.9376 62.4154 14.7826 63.0481C14.6276 63.6807 14.6308 64.3418 14.792 64.9729C14.9532 65.604 15.2674 66.1857 15.7067 66.6666C15.1854 67.2381 14.8417 67.9492 14.7179 68.7128C14.594 69.4765 14.6952 70.2597 15.0091 70.9668C15.3231 71.6739 15.8361 72.2742 16.4857 72.6945C17.1352 73.1147 17.8931 73.3367 18.6667 73.3333H18.8267C19.6774 77.1106 24.0587 79.9999 29.3334 79.9999C34.6081 79.9999 38.9894 77.1106 39.8401 73.3333H40.0001C40.7737 73.3367 41.5316 73.1147 42.1811 72.6945C42.8307 72.2742 43.3438 71.6739 43.6577 70.9668C43.9717 70.2597 44.0729 69.4765 43.949 68.7128C43.8251 67.9492 43.4815 67.2381 42.9601 66.6666C43.3996 66.1861 43.714 65.6048 43.8755 64.974C44.0371 64.3431 44.0408 63.6822 43.8863 63.0496C43.7319 62.4171 43.424 61.8322 42.9899 61.3468C42.5558 60.8615 42.0089 60.4905 41.3974 60.2666C41.5347 58.9991 41.9506 57.7777 42.6151 56.6897C43.2796 55.6017 44.1765 54.6741 45.2414 53.9732ZM60.3894 31.9999C60.6766 31.9998 60.9561 31.9069 61.1862 31.7351C61.4164 31.5633 61.5849 31.3219 61.6668 31.0466C62.2371 29.1256 63.5076 27.4887 65.2269 26.4595C66.9462 25.4303 68.9892 25.0838 70.9517 25.4885C72.9143 25.8932 74.6534 27.0197 75.8253 28.6452C76.9971 30.2707 77.5163 32.2767 77.2801 34.2666C77.065 36.0948 76.2261 37.7929 74.9047 39.0745C73.5833 40.3561 71.8604 41.1429 70.0265 41.302C68.1926 41.4611 66.3599 40.983 64.8375 39.9481C63.3151 38.9133 62.1962 37.3851 61.6694 35.6212C61.5877 35.3453 61.4188 35.1032 61.1881 34.9311C60.9574 34.759 60.6772 34.6662 60.3894 34.6666H48.0001C47.6465 34.6666 47.3073 34.8071 47.0573 35.0571C46.8072 35.3072 46.6667 35.6463 46.6667 35.9999V39.9999H44.0001V35.9999C44.0001 35.6463 43.8596 35.3072 43.6096 35.0571C43.3595 34.8071 43.0204 34.6666 42.6667 34.6666H41.3334C40.9798 34.6666 40.6407 34.5261 40.3906 34.2761C40.1406 34.026 40.0001 33.6869 40.0001 33.3332C39.9997 33.1552 40.0359 32.979 40.1063 32.8155C40.1767 32.652 40.2799 32.5047 40.4094 32.3826C40.5298 32.26 40.6737 32.1629 40.8325 32.0972C40.9912 32.0314 41.1616 31.9983 41.3334 31.9999H60.3894ZM38.6668 18.6666H36.0001V17.3332C36.0001 15.5651 35.2977 13.8694 34.0475 12.6192C32.7972 11.369 31.1015 10.6666 29.3334 10.6666C27.5653 10.6666 25.8696 11.369 24.6194 12.6192C23.3691 13.8694 22.6667 15.5651 22.6667 17.3332V18.6666H20.0001V17.3332C20.0001 14.8579 20.9834 12.4839 22.7338 10.7336C24.4841 8.98324 26.8581 7.99991 29.3334 7.99991C31.8088 7.99991 34.1827 8.98324 35.9331 10.7336C37.6834 12.4839 38.6668 14.8579 38.6668 17.3332V18.6666ZM33.3334 18.6666H25.3334V17.3332C25.3334 16.2724 25.7548 15.255 26.505 14.5048C27.2551 13.7547 28.2725 13.3332 29.3334 13.3332C30.3943 13.3332 31.4117 13.7547 32.1618 14.5048C32.912 15.255 33.3334 16.2724 33.3334 17.3332V18.6666ZM18.6667 21.3332H40.0001C40.7073 21.3332 41.3856 21.6142 41.8857 22.1143C42.3858 22.6144 42.6667 23.2927 42.6667 23.9999V29.3332H41.3334C40.2742 29.3385 39.2598 29.7616 38.5108 30.5106C37.7618 31.2596 37.3387 32.274 37.3334 33.3332C37.3334 34.3941 37.7548 35.4115 38.505 36.1617C39.2551 36.9118 40.2726 37.3332 41.3334 37.3332V39.9999C41.3349 40.4657 41.4589 40.923 41.6929 41.3257C41.927 41.7285 42.2628 42.0626 42.6667 42.2946V43.9999C42.6667 44.7072 42.3858 45.3854 41.8857 45.8855C41.3856 46.3856 40.7073 46.6666 40.0001 46.6666H18.6667C17.9595 46.6666 17.2812 46.3856 16.7811 45.8855C16.281 45.3854 16.0001 44.7072 16.0001 43.9999V23.9999C16.0001 23.2927 16.281 22.6144 16.7811 22.1143C17.2812 21.6142 17.9595 21.3332 18.6667 21.3332ZM40.0001 62.6666C40.3537 62.6666 40.6928 62.8071 40.9429 63.0571C41.1929 63.3072 41.3334 63.6463 41.3334 63.9999C41.3334 64.3535 41.1929 64.6927 40.9429 64.9427C40.6928 65.1928 40.3537 65.3333 40.0001 65.3333H18.6667C18.3131 65.3333 17.974 65.1928 17.7239 64.9427C17.4739 64.6927 17.3334 64.3535 17.3334 63.9999C17.3334 63.6463 17.4739 63.3072 17.7239 63.0571C17.974 62.8071 18.3131 62.6666 18.6667 62.6666H40.0001ZM29.3334 77.3333C25.6867 77.3333 22.5241 75.5999 21.6081 73.3333H37.0588C36.1427 75.5999 32.9801 77.3333 29.3334 77.3333ZM40.0001 70.6666H18.6667C18.3131 70.6666 17.974 70.5261 17.7239 70.2761C17.4739 70.026 17.3334 69.6869 17.3334 69.3333C17.3334 68.9796 17.4739 68.6405 17.7239 68.3904C17.974 68.1404 18.3131 67.9999 18.6667 67.9999H40.0001C40.3537 67.9999 40.6928 68.1404 40.9429 68.3904C41.1929 68.6405 41.3334 68.9796 41.3334 69.3333C41.3334 69.6869 41.1929 70.026 40.9429 70.2761C40.6928 70.5261 40.3537 70.6666 40.0001 70.6666ZM38.7481 59.9999H19.9201C19.749 58.3403 19.2105 56.7395 18.3435 55.314C17.4766 53.8885 16.303 52.6739 14.9081 51.7586C9.95387 48.5722 6.19407 43.8352 4.21561 38.287C2.23715 32.7387 2.15139 26.6916 3.9717 21.0895C5.79202 15.4874 9.41596 10.6456 14.2778 7.32004C19.1397 3.99446 24.9658 2.37223 30.8468 2.70658C37.3954 3.12976 43.5634 5.93262 48.1891 10.5873C52.8148 15.2421 55.5791 21.4274 55.9614 27.9786C55.9814 28.4666 55.9934 28.9119 55.9961 29.3319H45.3334V23.9999C45.329 22.821 44.9341 21.6767 44.2103 20.746C43.4866 19.8153 42.4749 19.1506 41.3334 18.8559V17.3332C41.3334 14.1506 40.0691 11.0984 37.8187 8.84797C35.5683 6.59753 32.516 5.33325 29.3334 5.33325C26.1508 5.33325 23.0986 6.59753 20.8481 8.84797C18.5977 11.0984 17.3334 14.1506 17.3334 17.3332V18.8559C16.1919 19.1506 15.1802 19.8153 14.4565 20.746C13.7328 21.6767 13.3378 22.821 13.3334 23.9999V43.9999C13.3334 45.4144 13.8953 46.771 14.8955 47.7711C15.8957 48.7713 17.2523 49.3332 18.6667 49.3332H40.0001C41.4146 49.3332 42.7711 48.7713 43.7713 47.7711C44.7715 46.771 45.3334 45.4144 45.3334 43.9999V42.6666H46.6667C47.374 42.6666 48.0523 42.3856 48.5524 41.8855C49.0525 41.3854 49.3334 40.7072 49.3334 39.9999V37.3332H54.7507C52.9034 43.2718 49.0236 48.3701 43.7921 51.7332C42.3916 52.6516 41.2126 53.8696 40.3403 55.2992C39.468 56.7289 38.9241 58.3344 38.7481 59.9999Z" fill="#16658E"/>
<path d="M24.9254 37.8787C24.8508 38.3022 24.8699 38.7369 24.9813 39.1523C25.0927 39.5676 25.2938 39.9535 25.5703 40.2827C25.8469 40.612 26.1922 40.8767 26.582 41.0583C26.9718 41.2398 27.3967 41.3337 27.8267 41.3334H30.84C31.2696 41.3338 31.6941 41.2401 32.0836 41.059C32.4732 40.8778 32.8183 40.6137 33.0949 40.285C33.3715 39.9563 33.5729 39.571 33.6848 39.1563C33.7967 38.7415 33.8164 38.3073 33.7427 37.8841L33.3494 35.5067C34.2023 34.5381 34.6709 33.2907 34.6667 32.0001C34.6667 30.5856 34.1048 29.229 33.1046 28.2288C32.1044 27.2287 30.7478 26.6667 29.3334 26.6667C27.9189 26.6667 26.5623 27.2287 25.5621 28.2288C24.5619 29.229 24 30.5856 24 32.0001C23.9958 33.2907 24.4644 34.5381 25.3174 35.5067L24.9254 37.8787ZM29.3334 29.3334C30.0406 29.3334 30.7189 29.6144 31.219 30.1145C31.7191 30.6146 32 31.2928 32 32.0001C32.0022 32.3841 31.9197 32.7638 31.7584 33.1123C31.5971 33.4607 31.3609 33.7693 31.0667 34.0161C30.8881 34.1647 30.7514 34.3575 30.6703 34.5752C30.5891 34.793 30.5663 35.0281 30.604 35.2574L31.1107 38.3241V38.3347C31.1191 38.3759 31.1181 38.4183 31.1077 38.459C31.0973 38.4996 31.0778 38.5374 31.0507 38.5694C31.0249 38.6008 30.9923 38.6259 30.9553 38.6428C30.9183 38.6597 30.878 38.6679 30.8374 38.6667H27.8267C27.7861 38.6679 27.7457 38.6597 27.7088 38.6428C27.6718 38.6259 27.6392 38.6008 27.6134 38.5694C27.5855 38.5357 27.5658 38.4961 27.5556 38.4535C27.5454 38.411 27.5451 38.3667 27.5547 38.3241L28.0614 35.2574C28.0991 35.0281 28.0763 34.793 27.9951 34.5752C27.9139 34.3575 27.7773 34.1647 27.5987 34.0161C27.3047 33.7692 27.0688 33.4605 26.9077 33.1121C26.7467 32.7636 26.6644 32.384 26.6667 32.0001C26.6667 31.2928 26.9476 30.6146 27.4477 30.1145C27.9478 29.6144 28.6261 29.3334 29.3334 29.3334Z" fill="#2198D5"/>
<path d="M69.3333 38.6667C70.3882 38.6667 71.4193 38.3539 72.2964 37.7678C73.1734 37.1818 73.857 36.3489 74.2607 35.3743C74.6644 34.3998 74.77 33.3274 74.5642 32.2929C74.3584 31.2583 73.8504 30.308 73.1046 29.5621C72.3587 28.8162 71.4084 28.3083 70.3738 28.1025C69.3392 27.8967 68.2669 28.0023 67.2924 28.406C66.3178 28.8096 65.4849 29.4932 64.8988 30.3703C64.3128 31.2474 64 32.2785 64 33.3333C64 34.7478 64.5619 36.1044 65.5621 37.1046C66.5623 38.1048 67.9188 38.6667 69.3333 38.6667ZM69.3333 30.6667C69.8608 30.6667 70.3763 30.8231 70.8149 31.1161C71.2534 31.4091 71.5952 31.8256 71.797 32.3128C71.9988 32.8001 72.0517 33.3363 71.9488 33.8536C71.8459 34.3709 71.5919 34.846 71.219 35.219C70.846 35.5919 70.3709 35.8459 69.8536 35.9488C69.3363 36.0517 68.8001 35.9988 68.3128 35.797C67.8256 35.5952 67.4091 35.2534 67.1161 34.8149C66.8231 34.3763 66.6667 33.8608 66.6667 33.3333C66.6667 32.6261 66.9476 31.9478 67.4477 31.4477C67.9478 30.9476 68.6261 30.6667 69.3333 30.6667Z" fill="#2198D5"/>
</g>
<defs>
<clipPath id="clip0_1795_5835">
<rect width="80" height="80" fill="white"/>
</clipPath>
</defs>
</svg>
