<svg width="80" height="80" viewBox="0 0 80 80" fill="none" xmlns="http://www.w3.org/2000/svg">
<path d="M74.2081 33.35C72.8899 33.0305 71.6649 32.4048 70.6396 31.5261C69.6143 30.6474 68.802 29.5291 68.2827 28.2776C67.7634 27.0262 67.5501 25.6682 67.6566 24.3235C67.7631 22.9789 68.1895 21.6609 68.8952 20.5159L72.0242 15.4036L64.5943 7.97471L59.4809 11.1033C58.3225 11.8089 57.0174 12.235 55.6725 12.3415C54.3276 12.448 52.9695 12.235 51.7178 11.7158C50.4661 11.1966 49.361 10.3844 48.4689 9.35928C47.59 8.33415 46.9644 7.10932 46.6448 5.7913L45.2599 0H34.7403L33.3558 5.7913C33.0362 7.10932 32.4102 8.33415 31.5314 9.35928C30.6525 10.3844 29.5341 11.1966 28.2824 11.7158C27.0308 12.235 25.6726 12.448 24.3277 12.3415C22.9828 12.235 21.6645 11.8089 20.5193 11.1033L15.406 7.97471L7.97607 15.4036L11.105 20.5159C11.8108 21.6742 12.2371 22.9789 12.3436 24.3235C12.4502 25.6682 12.2372 27.0262 11.7178 28.2776C11.1985 29.5291 10.3863 30.6341 9.36095 31.5261C8.33564 32.4181 7.11037 33.0305 5.79212 33.35L0 34.7346V45.2521L5.79212 46.6368C7.11037 46.9563 8.33564 47.582 9.36095 48.4607C10.3863 49.3394 11.1985 50.4578 11.7178 51.7093C11.8111 51.9356 11.8909 52.1751 11.9708 52.4148H21.7576C19.4939 49.0997 18.1892 45.2256 17.9628 41.2183C17.7364 37.211 18.6151 33.2169 20.4927 29.6755C22.3702 26.1342 25.1799 23.1653 28.6153 21.0884C32.0508 19.0248 35.9923 17.9198 40.0003 17.9198C44.0083 17.9198 47.9495 19.0115 51.3849 21.0884C54.8203 23.152 57.6301 26.1209 59.5076 29.6755C61.3851 33.2169 62.2638 37.211 62.0374 41.2183C61.8111 45.2256 60.5063 49.0997 58.2427 52.4148H68.0295C68.1094 52.1751 68.1895 51.9356 68.2827 51.7093C68.802 50.4578 69.6143 49.3527 70.6396 48.4607C71.6649 47.582 72.8899 46.9563 74.2081 46.6368L80.0002 45.2521V34.7346L74.2081 33.35Z" fill="#16658E"/>
<path d="M30.6386 67.0723C30.5454 65.9939 30.1458 64.9688 29.48 64.1168C28.8142 63.2647 27.9088 62.639 26.8835 62.2929L17.9221 59.3107L8.96071 62.2929C7.9354 62.639 7.03 63.2647 6.36422 64.1168C5.69843 64.9688 5.29881 65.9939 5.2056 67.0723L4.12695 79.9997H31.717L30.6386 67.0723Z" fill="#2198D5"/>
<path d="M12.3965 46.8904V51.4968C12.3965 52.9613 12.9826 54.3591 14.008 55.3976L17.9093 59.2985L21.8107 55.3976C22.8494 54.3591 23.4219 52.9613 23.4219 51.4968V41.3654H17.9093C16.4446 41.3654 15.0466 41.9511 14.008 42.9762C12.9693 44.0147 12.3965 45.4126 12.3965 46.8771V46.8904Z" fill="#2198D5"/>
<path d="M74.7809 67.0723C74.6877 65.9939 74.2884 64.9688 73.6226 64.1168C72.9568 63.2647 72.0511 62.639 71.0258 62.2929L62.0644 59.3107L53.103 62.2929C52.0777 62.639 51.1723 63.2647 50.5065 64.1168C49.8407 64.9688 49.4411 65.9939 49.3479 67.0723L48.2695 79.9997H75.8595L74.7809 67.0723Z" fill="#2198D5"/>
<path d="M56.5518 46.8904V51.4968C56.5518 52.9613 57.1376 54.3591 58.1629 55.3976L62.0643 59.2985L65.966 55.3976C67.0046 54.3591 67.5772 52.9613 67.5772 51.4968V41.3654H62.0643C60.5996 41.3654 59.2015 41.9511 58.1629 42.9762C57.1243 44.0147 56.5518 45.4126 56.5518 46.8771V46.8904Z" fill="#2198D5"/>
<path d="M52.7018 67.0723C52.6086 65.9939 52.2093 64.9688 51.5435 64.1168C50.8777 63.2647 49.9723 62.639 48.947 62.2929L39.9856 59.3107L31.0242 62.2929C29.9989 62.639 29.0932 63.2647 28.4274 64.1168C27.7616 64.9688 27.3623 65.9939 27.2691 67.0723L26.1904 79.9997H53.7804L52.7018 67.0723Z" fill="#16658E"/>
<path d="M34.4736 46.8904V51.4968C34.4736 52.9613 35.0595 54.3591 36.0848 55.3976L39.9865 59.2985L43.8879 55.3976C44.9265 54.3591 45.499 52.9613 45.499 51.4968V41.3654H39.9865C38.5218 41.3654 37.1234 41.9511 36.0848 42.9762C35.0462 44.0147 34.4736 45.4126 34.4736 46.8771V46.8904Z" fill="#16658E"/>
</svg>
