<svg width="80" height="80" viewBox="0 0 80 80" fill="none" xmlns="http://www.w3.org/2000/svg">
<g clip-path="url(#clip0_1795_5858)">
<path d="M79.9977 11.7697C79.9985 11.1954 79.8861 10.6265 79.6669 10.0957C79.4476 9.56483 79.1259 9.08239 78.7201 8.67597C78.3143 8.26955 77.8324 7.94711 77.3018 7.72711C76.7713 7.5071 76.2026 7.39384 75.6283 7.3938H73.7166C73.3844 7.3938 73.0658 7.52576 72.8309 7.76065C72.596 7.99554 72.4641 8.31412 72.4641 8.6463C72.4641 8.97848 72.596 9.29706 72.8309 9.53195C73.0658 9.76684 73.3844 9.8988 73.7166 9.8988H75.6283C75.8733 9.8988 76.116 9.9471 76.3423 10.0409C76.5687 10.1348 76.7743 10.2723 76.9475 10.4457C77.1206 10.6191 77.2579 10.8249 77.3515 11.0513C77.4451 11.2778 77.4931 11.5205 77.4928 11.7655L77.4397 48.0311C77.4367 49.0844 77.0165 50.0936 76.2712 50.8378C75.5259 51.5821 74.5161 52.0008 73.4628 52.0022H6.48438C5.42998 52.0011 4.41911 51.5817 3.67352 50.8362C2.92794 50.0906 2.50854 49.0798 2.50734 48.0254V11.7633C2.50788 11.269 2.70447 10.7951 3.05399 10.4456C3.40351 10.096 3.87741 9.89938 4.37172 9.8988H6.32937C6.66156 9.8988 6.98014 9.76684 7.21503 9.53195C7.44992 9.29706 7.58187 8.97848 7.58187 8.6463C7.58187 8.31412 7.44992 7.99554 7.21503 7.76065C6.98014 7.52576 6.66156 7.3938 6.32937 7.3938H4.37172C3.21332 7.39529 2.10279 7.85613 1.28369 8.67526C0.464594 9.49439 0.0037908 10.6049 0.00234375 11.7633L0 60.569C0.00148838 61.7273 0.46231 62.8378 1.2814 63.6569C2.1005 64.476 3.211 64.9368 4.36938 64.9383H32.2614V71.6691C32.2614 73.2771 32.2614 77.0422 24.347 77.0422H21.9292C21.597 77.0422 21.2785 77.1742 21.0436 77.4091C20.8087 77.644 20.6767 77.9626 20.6767 78.2947C20.6767 78.6269 20.8087 78.9455 21.0436 79.1804C21.2785 79.4153 21.597 79.5472 21.9292 79.5472H58.0708C58.403 79.5472 58.7215 79.4153 58.9564 79.1804C59.1913 78.9455 59.3233 78.6269 59.3233 78.2947C59.3233 77.9626 59.1913 77.644 58.9564 77.4091C58.7215 77.1742 58.403 77.0422 58.0708 77.0422H55.653C47.7386 77.0422 47.7386 73.2766 47.7386 71.6691V69.7738C47.7349 69.4441 47.6013 69.1291 47.3669 68.8972C47.1324 68.6653 46.8159 68.5353 46.4862 68.5353C46.1564 68.5353 45.84 68.6653 45.6055 68.8972C45.371 69.1291 45.2374 69.4441 45.2337 69.7738V71.6691C45.2337 72.5526 45.2337 74.6215 46.7025 76.4363C46.8777 76.6504 47.0666 76.8528 47.2681 77.0422H32.7322C32.9337 76.8528 33.1227 76.6504 33.2978 76.4363C34.7666 74.6215 34.7666 72.5526 34.7666 71.6691V64.9383H75.6306C76.789 64.9368 77.8995 64.476 78.7186 63.6569C79.5377 62.8378 79.9985 61.7273 80 60.569L79.9977 11.7697ZM75.6306 62.4335H4.36938C3.87504 62.433 3.4011 62.2363 3.05155 61.8868C2.702 61.5372 2.50538 61.0633 2.50484 60.569V53.1371C3.64068 54.0263 5.04188 54.5089 6.48438 54.5079H73.4628C74.9285 54.5087 76.3507 54.0102 77.4952 53.0944V60.569C77.4946 61.0633 77.298 61.5372 76.9485 61.8868C76.5989 62.2363 76.125 62.433 75.6306 62.4335Z" fill="#16658E"/>
<path d="M42.4566 57.1656H37.5429C37.3772 57.1638 37.2128 57.1948 37.0593 57.2569C36.9057 57.319 36.766 57.411 36.6482 57.5274C36.5304 57.6439 36.4369 57.7826 36.3731 57.9355C36.3092 58.0884 36.2764 58.2524 36.2764 58.418C36.2764 58.5837 36.3092 58.7477 36.3731 58.9006C36.4369 59.0534 36.5304 59.1921 36.6482 59.3086C36.766 59.4251 36.9057 59.5171 37.0593 59.5792C37.2128 59.6413 37.3772 59.6723 37.5429 59.6705H42.4566C42.6223 59.6723 42.7866 59.6413 42.9402 59.5792C43.0938 59.5171 43.2335 59.4251 43.3513 59.3086C43.4691 59.1921 43.5626 59.0534 43.6264 58.9006C43.6902 58.7477 43.7231 58.5837 43.7231 58.418C43.7231 58.2524 43.6902 58.0884 43.6264 57.9355C43.5626 57.7826 43.4691 57.6439 43.3513 57.5274C43.2335 57.411 43.0938 57.319 42.9402 57.2569C42.7866 57.1948 42.6223 57.1638 42.4566 57.1656Z" fill="#16658E"/>
<path d="M11.397 48.5288C11.5615 48.5288 11.7244 48.4963 11.8763 48.4334C12.0283 48.3705 12.1663 48.2782 12.2826 48.1619C12.3989 48.0456 12.4912 47.9075 12.5541 47.7556C12.617 47.6036 12.6494 47.4407 12.6494 47.2762V13.3408H67.3509V47.2762C67.3491 47.4419 67.3801 47.6063 67.4422 47.7598C67.5043 47.9134 67.5963 48.0531 67.7128 48.1709C67.8293 48.2887 67.9679 48.3822 68.1208 48.4461C68.2737 48.5099 68.4377 48.5427 68.6034 48.5427C68.769 48.5427 68.933 48.5099 69.0859 48.4461C69.2388 48.3822 69.3775 48.2887 69.4939 48.1709C69.6104 48.0531 69.7024 47.9134 69.7645 47.7598C69.8266 47.6063 69.8576 47.4419 69.8558 47.2762V6.88172C69.8538 5.17732 69.1758 3.54331 67.9705 2.33814C66.7653 1.13298 65.1313 0.455069 63.4269 0.453125H16.5734C14.869 0.455069 13.235 1.13298 12.0298 2.33814C10.8245 3.54331 10.1466 5.17732 10.1445 6.88172V47.2762C10.1445 47.4407 10.1769 47.6036 10.2399 47.7556C10.3028 47.9075 10.3951 48.0456 10.5114 48.1619C10.6277 48.2782 10.7658 48.3705 10.9177 48.4334C11.0697 48.4964 11.2326 48.5288 11.397 48.5288ZM16.5734 2.95766H63.4269C64.4672 2.95881 65.4647 3.37261 66.2003 4.10827C66.936 4.84392 67.3498 5.84135 67.3509 6.88172V10.8358H12.6494V6.88172C12.6505 5.84135 13.0643 4.84392 13.8 4.10827C14.5356 3.37261 15.5331 2.95881 16.5734 2.95766Z" fill="#16658E"/>
<path d="M19.5334 7.25533C19.839 6.51793 19.489 5.67237 18.7516 5.36672C18.0142 5.06106 17.1687 5.41106 16.863 6.14846C16.5574 6.88586 16.9074 7.73142 17.6447 8.03708C18.3821 8.34273 19.2277 7.99273 19.5334 7.25533Z" fill="#2198D5"/>
<path d="M23.7677 7.2546C24.0734 6.5172 23.7234 5.67164 22.986 5.36598C22.2486 5.06033 21.403 5.41033 21.0974 6.14773C20.7917 6.88513 21.1417 7.73069 21.8791 8.03634C22.6165 8.342 23.4621 7.992 23.7677 7.2546Z" fill="#2198D5"/>
<path d="M28.0011 7.25436C28.3068 6.51696 27.9568 5.67139 27.2194 5.36574C26.482 5.06009 25.6364 5.41009 25.3308 6.14749C25.0251 6.88489 25.3751 7.73045 26.1125 8.0361C26.8499 8.34175 27.6955 7.99176 28.0011 7.25436Z" fill="#2198D5"/>
<path d="M48.7418 7.79775H63.2537C63.3987 7.79948 63.5426 7.77242 63.6771 7.71812C63.8116 7.66383 63.9339 7.58338 64.0371 7.48145C64.1403 7.37952 64.2222 7.25813 64.2781 7.12431C64.334 6.9905 64.3627 6.84692 64.3627 6.70189C64.3627 6.55687 64.334 6.41329 64.2781 6.27948C64.2222 6.14566 64.1403 6.02427 64.0371 5.92234C63.9339 5.8204 63.8116 5.73996 63.6771 5.68566C63.5426 5.63137 63.3987 5.6043 63.2537 5.60604H48.7418C48.5968 5.6043 48.4529 5.63137 48.3184 5.68566C48.184 5.73996 48.0616 5.8204 47.9584 5.92234C47.8553 6.02427 47.7734 6.14566 47.7175 6.27948C47.6616 6.41329 47.6328 6.55687 47.6328 6.70189C47.6328 6.84692 47.6616 6.9905 47.7175 7.12431C47.7734 7.25813 47.8553 7.37952 47.9584 7.48145C48.0616 7.58338 48.184 7.66383 48.3184 7.71812C48.4529 7.77242 48.5968 7.79948 48.7418 7.79775Z" fill="#2198D5"/>
<path d="M64.3663 19.3259C64.3655 18.6714 64.1052 18.0439 63.6424 17.5811C63.1796 17.1183 62.5521 16.8579 61.8975 16.8572H18.1025C17.448 16.8579 16.8205 17.1183 16.3577 17.5811C15.8949 18.0439 15.6345 18.6714 15.6338 19.3259V30.1541C15.6345 30.8086 15.8949 31.4361 16.3577 31.8989C16.8205 32.3617 17.448 32.6221 18.1025 32.6228H61.8975C62.5521 32.6221 63.1796 32.3617 63.6424 31.8989C64.1052 31.4361 64.3655 30.8086 64.3663 30.1541V19.3259ZM62.1746 30.1541C62.1745 30.2275 62.1453 30.2979 62.0933 30.3499C62.0414 30.4018 61.971 30.431 61.8975 30.4311H18.1025C18.0291 30.431 17.9587 30.4018 17.9067 30.3499C17.8548 30.2979 17.8256 30.2275 17.8255 30.1541V19.3259C17.8256 19.2525 17.8548 19.1821 17.9067 19.1302C17.9587 19.0783 18.0291 19.0491 18.1025 19.0491H61.8975C61.971 19.0491 62.0414 19.0783 62.0933 19.1302C62.1453 19.1821 62.1745 19.2525 62.1746 19.3259V30.1541Z" fill="#16658E"/>
<path d="M35.7984 48.2985C35.9423 48.2985 36.0848 48.2702 36.2178 48.2151C36.3507 48.16 36.4715 48.0793 36.5733 47.9775C36.675 47.8758 36.7558 47.7549 36.8108 47.622C36.8659 47.489 36.8942 47.3465 36.8942 47.2026V38.439C36.8935 37.7727 36.6285 37.134 36.1574 36.6628C35.6863 36.1917 35.0475 35.9267 34.3812 35.926H18.1468C17.4806 35.9267 16.8418 36.1917 16.3707 36.6628C15.8996 37.134 15.6346 37.7727 15.6339 38.439V47.2031C15.6321 47.3481 15.6592 47.492 15.7135 47.6265C15.7678 47.7609 15.8482 47.8833 15.9502 47.9864C16.0521 48.0896 16.1735 48.1715 16.3073 48.2274C16.4411 48.2833 16.5847 48.3121 16.7297 48.3121C16.8747 48.3121 17.0183 48.2833 17.1521 48.2274C17.286 48.1715 17.4074 48.0896 17.5093 47.9864C17.6112 47.8833 17.6917 47.7609 17.746 47.6265C17.8003 47.492 17.8273 47.3481 17.8256 47.2031V38.439C17.8257 38.3538 17.8595 38.2722 17.9198 38.2119C17.98 38.1517 18.0617 38.1178 18.1468 38.1177H34.3812C34.4664 38.1178 34.548 38.1517 34.6083 38.2119C34.6685 38.2722 34.7024 38.3538 34.7025 38.439V47.2031C34.7026 47.4936 34.8181 47.7723 35.0236 47.9777C35.2291 48.1831 35.5078 48.2985 35.7984 48.2985Z" fill="#16658E"/>
<path d="M63.2702 48.2985C63.4141 48.2985 63.5567 48.2702 63.6896 48.2151C63.8226 48.16 63.9434 48.0793 64.0451 47.9775C64.1469 47.8758 64.2276 47.7549 64.2826 47.622C64.3377 47.489 64.366 47.3465 64.366 47.2026V38.439C64.3653 37.7727 64.1003 37.134 63.6292 36.6628C63.1581 36.1917 62.5193 35.9267 61.853 35.926H45.6185C44.9522 35.9267 44.3135 36.1917 43.8424 36.6628C43.3712 37.134 43.1063 37.7727 43.1055 38.439V47.2031C43.1038 47.3481 43.1309 47.492 43.1852 47.6265C43.2395 47.7609 43.3199 47.8833 43.4218 47.9864C43.5238 48.0896 43.6452 48.1715 43.779 48.2274C43.9128 48.2833 44.0564 48.3121 44.2014 48.3121C44.3464 48.3121 44.49 48.2833 44.6238 48.2274C44.7576 48.1715 44.879 48.0896 44.981 47.9864C45.0829 47.8833 45.1633 47.7609 45.2176 47.6265C45.2719 47.492 45.299 47.3481 45.2973 47.2031V38.439C45.2973 38.3538 45.3312 38.2722 45.3914 38.2119C45.4517 38.1517 45.5333 38.1178 45.6185 38.1177H61.8529C61.9381 38.1178 62.0197 38.1517 62.08 38.2119C62.1402 38.2722 62.1741 38.3538 62.1741 38.439V47.2031C62.1743 47.4937 62.2898 47.7723 62.4954 47.9778C62.7009 48.1832 62.9796 48.2986 63.2702 48.2985Z" fill="#16658E"/>
</g>
<defs>
<clipPath id="clip0_1795_5858">
<rect width="80" height="80" fill="white"/>
</clipPath>
</defs>
</svg>
