<svg width="80" height="80" viewBox="0 0 80 80" fill="none" xmlns="http://www.w3.org/2000/svg">
<g clip-path="url(#clip0_1797_6307)">
<path d="M57.5 80H22.5C20.4375 80 18.75 78.3125 18.75 76.25C18.75 65.5625 27.8875 57.5 40 57.5C52.1125 57.5 61.25 65.5625 61.25 76.25C61.25 78.3125 59.5625 80 57.5 80ZM40 60C29.3125 60 21.25 66.9875 21.25 76.25C21.25 76.9375 21.8125 77.5 22.5 77.5H57.5C58.1875 77.5 58.75 76.9375 58.75 76.25C58.75 66.9875 50.6875 60 40 60Z" fill="#16658E"/>
<path d="M40 55C34.4875 55 30 50.5125 30 45C30 39.4875 34.4875 35 40 35C45.5125 35 50 39.4875 50 45C50 50.5125 45.5125 55 40 55ZM40 37.5C35.8625 37.5 32.5 40.8625 32.5 45C32.5 49.1375 35.8625 52.5 40 52.5C44.1375 52.5 47.5 49.1375 47.5 45C47.5 40.8625 44.1375 37.5 40 37.5Z" fill="#16658E"/>
<path d="M76.2498 80H63.7498C63.0623 80 62.4998 79.4375 62.4998 78.75C62.4998 78.0625 63.0623 77.5 63.7498 77.5H76.2498C76.9373 77.5 77.4998 76.9375 77.4998 76.25C77.4998 67.125 72.0373 62.5 61.2498 62.5C59.9873 62.5 58.7748 62.5625 57.6373 62.7C56.9498 62.7875 56.3373 62.2875 56.2498 61.6C56.1748 60.9125 56.6623 60.3 57.3498 60.2125C58.5748 60.075 59.8873 60 61.2373 60C73.4998 60 79.9873 65.625 79.9873 76.25C79.9873 78.3125 78.2998 80 76.2373 80H76.2498Z" fill="#16658E"/>
<path d="M61.25 57.5C56.425 57.5 52.5 53.575 52.5 48.75C52.5 43.925 56.425 40 61.25 40C66.075 40 70 43.925 70 48.75C70 53.575 66.075 57.5 61.25 57.5ZM61.25 42.5C57.8 42.5 55 45.3 55 48.75C55 52.2 57.8 55 61.25 55C64.7 55 67.5 52.2 67.5 48.75C67.5 45.3 64.7 42.5 61.25 42.5Z" fill="#16658E"/>
<path d="M18.75 57.5C13.925 57.5 10 53.575 10 48.75C10 43.925 13.925 40 18.75 40C23.575 40 27.5 43.925 27.5 48.75C27.5 53.575 23.575 57.5 18.75 57.5ZM18.75 42.5C15.3 42.5 12.5 45.3 12.5 48.75C12.5 52.2 15.3 55 18.75 55C22.2 55 25 52.2 25 48.75C25 45.3 22.2 42.5 18.75 42.5Z" fill="#16658E"/>
<path d="M16.25 80H3.75C1.6875 80 0 78.3125 0 76.25C0 65.625 6.4875 60 18.75 60C20.1 60 21.4125 60.075 22.6375 60.2125C23.325 60.2875 23.8125 60.9125 23.7375 61.6C23.6625 62.2875 23.0375 62.7875 22.35 62.7C21.2125 62.575 20 62.5 18.7375 62.5C7.95 62.5 2.4875 67.125 2.4875 76.25C2.4875 76.9375 3.05 77.5 3.7375 77.5H16.2375C16.925 77.5 17.4875 78.0625 17.4875 78.75C17.4875 79.4375 16.925 80 16.2375 80H16.25Z" fill="#16658E"/>
<path d="M11.25 41.1C10.7125 41.1 10.2125 40.75 10.05 40.2125C9.1875 37.3125 8.75 34.3 8.75 31.2625C8.75 14.0125 22.7625 0 40 0C57.2375 0 71.25 14.0125 71.25 31.25C71.25 33.9 70.9125 36.525 70.2625 39.0625C70.0875 39.725 69.4125 40.1375 68.7375 39.9625C68.075 39.7875 67.6625 39.1125 67.8375 38.4375C68.4375 36.1 68.7375 33.6875 68.7375 31.25C68.7375 15.4 55.8375 2.5 39.9875 2.5C24.1375 2.5 11.25 15.4 11.25 31.25C11.25 34.05 11.65 36.825 12.45 39.4875C12.65 40.15 12.275 40.85 11.6125 41.0375C11.4875 41.075 11.375 41.0875 11.25 41.0875V41.1Z" fill="#2198D5"/>
<path d="M40 33.6499C39.35 33.6499 38.8 33.1499 38.75 32.4999H36.1375C34.8125 32.4999 33.7375 31.4249 33.7375 30.0999V29.9999H31.1375C29.8125 29.9999 28.7375 28.9249 28.7375 27.5999V26.2499H26.5875C26.1125 26.2499 25.65 26.1124 25.2625 25.8499L22.3125 23.8874C21.65 23.4374 21.25 22.6999 21.25 21.8874V18.6499C21.25 17.3249 22.325 16.2499 23.65 16.2499H27.125L31.3 13.0999L31.2625 12.4999H31.15C29.825 12.4999 28.75 11.4249 28.75 10.0999V6.7249L27.8625 5.8874C27.375 5.3999 27.375 4.6124 27.8625 4.1249C28.35 3.6374 29.1375 3.6374 29.625 4.1249L30.5375 5.0374C30.9875 5.4874 31.2375 6.0874 31.2375 6.7374V10.0124H31.3375C32.6625 10.0124 33.7375 11.0874 33.7375 12.4124V13.1874C33.7375 13.9374 33.375 14.6499 32.775 15.0999L28.5375 18.2749C28.125 18.5874 27.6125 18.7499 27.1 18.7499H23.7375V21.8874L26.6375 23.7624H28.8375C30.1625 23.7499 31.2375 24.8249 31.2375 26.1374V27.4874H33.8375C35.1625 27.4874 36.2375 28.5624 36.2375 29.8874V29.9874H38.8375C40.1625 29.9874 41.2375 31.0624 41.2375 32.3874C41.2375 33.0749 40.675 33.6374 39.9875 33.6374L40 33.6499Z" fill="#2198D5"/>
<path d="M25.0002 39.4625C24.3127 39.4625 23.7502 38.9 23.7502 38.2125L17.5752 35.1875C16.7627 34.775 16.2502 33.9625 16.2502 33.0375V29.9C16.2502 28.575 17.3252 27.5 18.6502 27.5H18.7502V26.8625L16.0627 25.125C15.4002 24.675 15.0002 23.9375 15.0002 23.125V19.2125L14.1127 18.375C13.6252 17.8875 13.6252 17.1 14.1127 16.6125C14.6002 16.125 15.3877 16.125 15.8752 16.6125L16.7877 17.525C17.2377 17.975 17.4877 18.575 17.4877 19.225V23.1375L20.1752 24.875C20.8377 25.325 21.2377 26.0625 21.2377 26.875V27.6125C21.2377 28.9375 20.1627 30.0125 18.8377 30.0125H18.7377V33.05L24.9127 36.075C25.7252 36.4875 26.2377 37.3 26.2377 38.225C26.2377 38.9125 25.6752 39.475 24.9877 39.475L25.0002 39.4625Z" fill="#2198D5"/>
<path d="M58.125 38.75C57.75 38.75 57.375 38.575 57.125 38.25L55.475 36.05C55.1625 35.6375 55 35.125 55 34.6125V30.2625C55 29.8875 55.0875 29.525 55.25 29.1875L56.0625 27.5625C56.475 26.75 57.2875 26.2375 58.2125 26.2375H60V25.7C60 24.7875 60.5125 23.9625 61.325 23.55L62.5625 22.9375L62.5125 21.2375H61.525L59.825 22.1C59.15 22.4375 58.35 22.4375 57.6875 22.1L55.9375 21.225H49.9C48.575 21.225 47.5 20.1625 47.5 18.8375V16.95C47.5 16.0375 48.0125 15.2125 48.825 14.8L50.0625 14.1875L50 12.8375C50 12.3625 50.1375 11.9 50.4 11.5125L52.1375 8.90002C51.45 8.17502 51.3 7.08752 51.75 6.18752L52.625 4.42502C52.9375 3.81252 53.6875 3.55002 54.3 3.86252C54.9125 4.17502 55.1625 4.92502 54.8625 5.53752L53.9875 7.30002C54.775 7.98752 54.9 9.26252 54.2625 10.2125L52.475 12.8875V14.275C52.4875 15.1875 51.9875 16.0125 51.1625 16.425L49.925 17.0375L49.975 18.7375H55.9625C56.3375 18.7375 56.7 18.825 57.0375 18.9875L58.7875 19.8625L60.4375 18.9875C60.775 18.825 61.1375 18.7375 61.5125 18.7375H62.6C63.925 18.7375 65 19.8125 65 21.1375V23.025C65 23.9375 64.4875 24.7625 63.675 25.175L62.4375 25.7875L62.5 26.3375C62.5 27.6625 61.425 28.7375 60.1 28.7375H58.2125L57.4875 30.3V34.6L59.125 36.7375C59.5375 37.2875 59.425 38.075 58.875 38.4875C58.65 38.6625 58.3875 38.7375 58.125 38.7375V38.75Z" fill="#2198D5"/>
</g>
<defs>
<clipPath id="clip0_1797_6307">
<rect width="80" height="80" fill="white"/>
</clipPath>
</defs>
</svg>
