<svg width="80" height="80" viewBox="0 0 80 80" fill="none" xmlns="http://www.w3.org/2000/svg">
<path d="M58.75 48.75V54.835L67.8788 48.75H70C73.4462 48.75 76.25 45.9462 76.25 42.5V27.5C76.25 24.0538 73.4462 21.25 70 21.25H63.3125C62.28 18.3413 59.5088 16.25 56.25 16.25C52.9912 16.25 50.22 18.3413 49.1875 21.25H42.5C42.0725 21.25 41.6538 21.2937 41.25 21.3762V12.5C41.25 9.05375 38.4462 6.25 35 6.25H28.3125C27.28 3.34125 24.5088 1.25 21.25 1.25C17.9912 1.25 15.22 3.34125 14.1875 6.25H7.5C4.05375 6.25 1.25 9.05375 1.25 12.5V27.5C1.25 30.9462 4.05375 33.75 7.5 33.75H17.535C15.17 36.8875 13.75 40.7763 13.75 45C13.75 48.76 14.8725 52.2575 16.7862 55.1963L15 56.9825L13.75 55.7325L2.91125 66.5725C1.84 67.6425 1.25 69.0675 1.25 70.5813C1.25 73.7075 3.79375 76.25 6.92 76.25C8.435 76.25 9.85875 75.66 10.9288 74.59L21.7675 63.75L20.5175 62.5L22.3038 60.7137C25.2425 62.6275 28.74 63.75 32.5 63.75C41.555 63.75 49.13 57.2988 50.8725 48.75H58.75ZM63.75 23.75H70C72.0675 23.75 73.75 25.4325 73.75 27.5V42.5C73.75 44.5675 72.0675 46.25 70 46.25H67.1212L61.25 50.165V46.25H51.1863C51.2138 45.835 51.25 45.4225 51.25 45C51.25 44.5775 51.2138 44.165 51.1863 43.75H68.75V41.25C68.75 35.9913 65.48 31.4887 60.87 29.6462C62.62 28.2712 63.75 26.1425 63.75 23.75ZM59.905 41.25L59.1412 31.68C63.2487 32.9237 66.25 36.7412 66.25 41.25H59.905ZM56.5987 31.2675L57.3962 41.25H55.1038L55.9 31.2713C56.0175 31.2675 56.1325 31.25 56.25 31.25C56.3675 31.25 56.4825 31.2637 56.5987 31.2675ZM52.595 41.25H50.8712C50.4187 39.0275 49.555 36.9575 48.39 35.095C49.6713 33.46 51.4063 32.285 53.3575 31.695L52.595 41.25ZM56.25 18.75C59.0075 18.75 61.25 20.9925 61.25 23.75C61.25 26.5075 59.0075 28.75 56.25 28.75C53.4925 28.75 51.25 26.5075 51.25 23.75C51.25 20.9925 53.4925 18.75 56.25 18.75ZM48.75 23.75C48.75 26.1412 49.8787 28.2688 51.6262 29.6438C49.8162 30.365 48.185 31.5 46.8762 32.985C44.7462 30.4413 41.95 28.4837 38.765 27.35C38.8462 25.3525 40.4837 23.75 42.5 23.75H48.75ZM28.75 8.75H35C37.0675 8.75 38.75 10.4325 38.75 12.5V22.5325C37.4575 23.5112 36.5688 24.9688 36.3363 26.6488C35.495 26.4725 34.6288 26.3725 33.75 26.315V26.25C33.75 20.9913 30.48 16.4887 25.87 14.6463C27.62 13.2712 28.75 11.1425 28.75 8.75ZM11.25 26.25C11.25 21.7412 14.2512 17.9237 18.36 16.68L17.595 26.25H11.25ZM20.9013 16.2675C21.0175 16.2637 21.1325 16.25 21.25 16.25C21.3675 16.25 21.4825 16.2637 21.5987 16.2675L22.3962 26.25H20.1038L20.9013 16.2675ZM24.14 16.68C28.2488 17.9237 31.25 21.7412 31.25 26.25H24.905L24.14 16.68ZM21.25 3.75C24.0075 3.75 26.25 5.9925 26.25 8.75C26.25 11.5075 24.0075 13.75 21.25 13.75C18.4925 13.75 16.25 11.5075 16.25 8.75C16.25 5.9925 18.4925 3.75 21.25 3.75ZM3.75 27.5V12.5C3.75 10.4325 5.4325 8.75 7.5 8.75H13.75C13.75 11.1425 14.88 13.2712 16.63 14.6463C12.02 16.4887 8.75 20.9913 8.75 26.25V28.75H23.1862C21.9612 29.455 20.8275 30.2962 19.7962 31.25H7.5C5.4325 31.25 3.75 29.5675 3.75 27.5ZM9.16125 72.8225C8.5625 73.42 7.76625 73.75 6.92 73.75C5.1725 73.75 3.75 72.3275 3.75 70.5813C3.75 69.735 4.08 68.94 4.67875 68.34L13.75 59.2675L18.2325 63.75L9.16125 72.8225ZM18.75 60.7325L16.7675 58.75L18.3037 57.2137C18.915 57.9225 19.5775 58.585 20.2863 59.1962L18.75 60.7325ZM32.5 61.25C23.54 61.25 16.25 53.96 16.25 45C16.25 36.04 23.54 28.75 32.5 28.75C41.46 28.75 48.75 36.04 48.75 45C48.75 53.96 41.46 61.25 32.5 61.25Z" fill="#16658E"/>
<path d="M32.5 31.25C24.9187 31.25 18.75 37.4187 18.75 45C18.75 52.5813 24.9187 58.75 32.5 58.75C40.0813 58.75 46.25 52.5813 46.25 45C46.25 37.4187 40.0813 31.25 32.5 31.25ZM32.5 56.25C26.2975 56.25 21.25 51.2037 21.25 45C21.25 38.7963 26.2975 33.75 32.5 33.75C38.7025 33.75 43.75 38.7963 43.75 45C43.75 51.2037 38.7025 56.25 32.5 56.25Z" fill="#2198D5"/>
<path d="M75 56.25H52.5C50.4325 56.25 48.75 57.9325 48.75 60V75C48.75 77.0675 50.4325 78.75 52.5 78.75H75C77.0675 78.75 78.75 77.0675 78.75 75V60C78.75 57.9325 77.0675 56.25 75 56.25ZM76.25 75C76.25 75.69 75.6887 76.25 75 76.25H52.5C51.8113 76.25 51.25 75.69 51.25 75V60C51.25 59.31 51.8113 58.75 52.5 58.75H75C75.6887 58.75 76.25 59.31 76.25 60V75Z" fill="#2198D5"/>
<path d="M71.25 63.75H68.75V71.25H66.25V66.25H63.75V71.25H61.25V68.75H58.75V71.25H56.25V61.25H53.75V73.75H73.75V71.25H71.25V63.75Z" fill="#2198D5"/>
<path d="M68.75 26.25H71.25V28.75H68.75V26.25Z" fill="#2198D5"/>
<path d="M68.75 31.25H71.25V33.75H68.75V31.25Z" fill="#2198D5"/>
<path d="M6.25 11.25H8.75V13.75H6.25V11.25Z" fill="#2198D5"/>
<path d="M6.25 16.25H8.75V18.75H6.25V16.25Z" fill="#2198D5"/>
</svg>
