<svg width="80" height="80" viewBox="0 0 80 80" fill="none" xmlns="http://www.w3.org/2000/svg">
<g clip-path="url(#clip0_1904_5946)">
<path d="M31.5641 56.0627C31.2619 56.0627 30.9575 55.9588 30.7092 55.7473L22.1626 48.4699C21.8678 48.2185 21.6982 47.8515 21.6982 47.4638C21.6982 47.0769 21.8685 46.7098 22.1626 46.4585L30.7092 39.1811C31.2641 38.7079 32.0977 38.775 32.5709 39.33C33.0433 39.8857 32.977 40.7193 32.4213 41.1917L25.0561 47.4638L32.4213 53.7359C32.977 54.2091 33.0433 55.0427 32.5709 55.5977C32.3092 55.905 31.9378 56.0627 31.5641 56.0627Z" fill="#2198D5"/>
<path d="M48.4357 56.0627C48.062 56.0627 47.6905 55.905 47.4296 55.5977C46.9564 55.0427 47.0235 54.2091 47.5785 53.7359L54.9436 47.4638L47.5785 41.1917C47.0235 40.7193 46.9564 39.8857 47.4296 39.33C47.9021 38.775 48.7364 38.7079 49.2906 39.1811L57.8372 46.4585C58.132 46.7098 58.3015 47.0769 58.3015 47.4638C58.3015 47.8515 58.132 48.2185 57.8372 48.4699L49.2906 55.7473C49.0422 55.9588 48.7378 56.0627 48.4357 56.0627Z" fill="#2198D5"/>
<path d="M36.9742 61.5211C36.8836 61.5211 36.7922 61.5116 36.7 61.4924C35.9866 61.342 35.5296 60.6411 35.68 59.9277L41.0065 34.638C41.1568 33.9246 41.857 33.4676 42.5712 33.618C43.2846 33.7683 43.7416 34.4685 43.5913 35.1827L38.2647 60.4723C38.1336 61.0944 37.5852 61.5211 36.9742 61.5211Z" fill="#2198D5"/>
<path d="M71.1321 75.2991H8.86793C3.97848 75.2991 0 71.3213 0 66.4311V13.5847C0 8.69528 3.97848 4.7168 8.86793 4.7168H71.1321C76.0215 4.7168 80 8.69528 80 13.5847V66.4311C80 71.3213 76.0215 75.2991 71.1321 75.2991ZM8.86793 7.35831C5.43485 7.35831 2.64151 10.1516 2.64151 13.5847V66.4311C2.64151 69.8642 5.43485 72.6575 8.86793 72.6575H71.1321C74.5652 72.6575 77.3585 69.8642 77.3585 66.4311V13.5847C77.3585 10.1516 74.5652 7.35831 71.1321 7.35831H8.86793Z" fill="#16658E"/>
<path d="M78.6793 25.8661H1.32075C0.591097 25.8661 0 25.275 0 24.5454C0 23.8164 0.591097 23.2246 1.32075 23.2246H78.6793C79.4089 23.2246 80 23.8164 80 24.5454C80 25.275 79.4089 25.8661 78.6793 25.8661Z" fill="#16658E"/>
<path d="M22.5664 19.5459C20.2625 19.5459 18.3867 17.6702 18.3867 15.3662C18.3867 13.0615 20.2625 11.1865 22.5664 11.1865C24.8711 11.1865 26.7461 13.0615 26.7461 15.3662C26.7461 17.6702 24.8711 19.5459 22.5664 19.5459ZM22.5664 13.828C21.7188 13.828 21.0282 14.5179 21.0282 15.3662C21.0282 16.2145 21.7188 16.9044 22.5664 16.9044C23.4147 16.9044 24.1046 16.2145 24.1046 15.3662C24.1046 14.5179 23.4147 13.828 22.5664 13.828Z" fill="#16658E"/>
<path d="M9.72461 19.5054C7.41992 19.5054 5.54492 17.6304 5.54492 15.3257C5.54492 13.021 7.41992 11.146 9.72461 11.146C12.0293 11.146 13.9043 13.021 13.9043 15.3257C13.9043 17.6304 12.0293 19.5054 9.72461 19.5054ZM9.72461 13.7875C8.87703 13.7875 8.18643 14.4781 8.18643 15.3257C8.18643 16.174 8.87703 16.8639 9.72461 16.8639C10.5729 16.8639 11.2628 16.174 11.2628 15.3257C11.2628 14.4781 10.5729 13.7875 9.72461 13.7875Z" fill="#16658E"/>
<path d="M35.4084 19.5857C33.1045 19.5857 31.2295 17.7107 31.2295 15.406C31.2295 13.1021 33.1045 11.2271 35.4084 11.2271C37.7131 11.2271 39.5881 13.1021 39.5881 15.406C39.5881 17.7107 37.7131 19.5857 35.4084 19.5857ZM35.4084 13.8678C34.5609 13.8678 33.871 14.5577 33.871 15.406C33.871 16.2543 34.5609 16.9442 35.4084 16.9442C36.2568 16.9442 36.9466 16.2543 36.9466 15.406C36.9466 14.5577 36.2568 13.8678 35.4084 13.8678Z" fill="#16658E"/>
</g>
<defs>
<clipPath id="clip0_1904_5946">
<rect width="80" height="80" fill="white"/>
</clipPath>
</defs>
</svg>
